/* XPM */
static char *_372560a67b047b2ad622280da91f4dd[] = {
/* columns rows colors chars-per-pixel */
"64 64 215 2 ",
"   c None",
".  c #010004",
"X  c #00000B",
"o  c #0E0002",
"O  c #000612",
"+  c #000915",
"@  c #010D19",
"#  c #090913",
"$  c #1D0C17",
"%  c #180E1A",
"&  c #02111D",
"*  c #08151E",
"=  c #1C0B14",
"-  c #390305",
";  c #200A12",
":  c #2C0D14",
">  c #011523",
",  c #041A26",
"<  c #021B2B",
"1  c #0B1A26",
"2  c #121A20",
"3  c #021D31",
"4  c #121F32",
"5  c #2C1D27",
"6  c #3D1C25",
"7  c #00262F",
"8  c #14212C",
"9  c #1C252E",
"0  c #022233",
"q  c #0A2432",
"w  c #0D2739",
"e  c #022A3E",
"r  c #0C2B3D",
"t  c #0B2934",
"y  c #122434",
"u  c #152835",
"i  c #132A3B",
"p  c #1C2E3D",
"a  c #1F2432",
"s  c #03333C",
"d  c #16363F",
"f  c #24222C",
"g  c #252433",
"h  c #3A2B37",
"j  c #2A343D",
"k  c #26343C",
"l  c #3C323F",
"z  c #4D0306",
"x  c #570604",
"c  c #5E0D10",
"v  c #54181B",
"b  c #620403",
"n  c #6C0201",
"m  c #750303",
"M  c #790303",
"N  c #7B0C0C",
"B  c #73090A",
"V  c #7A100F",
"C  c #661619",
"Z  c #7D1414",
"A  c #7C1C1D",
"S  c #731416",
"D  c #78201F",
"F  c #411D29",
"G  c #6F1D21",
"H  c #611C22",
"J  c #721D25",
"K  c #572A2D",
"L  c #4D2F3A",
"P  c #582D35",
"I  c #46303C",
"U  c #57333A",
"Y  c #66262C",
"T  c #682427",
"R  c #7C2426",
"E  c #76282B",
"W  c #712323",
"Q  c #632D36",
"!  c #712C30",
"~  c #793C3E",
"^  c #783438",
"/  c #062D41",
"(  c #162E41",
")  c #093748",
"_  c #1C3244",
"`  c #1D3749",
"'  c #1C3C4D",
"]  c #153648",
"[  c #073D53",
"{  c #143D53",
"}  c #1C3E52",
"|  c #223747",
" . c #243C4D",
".. c #2A3D4C",
"X. c #263745",
"o. c #3B3441",
"O. c #333A49",
"+. c #3B3B49",
"@. c #323A47",
"#. c #263F50",
"$. c #373F51",
"%. c #453C4B",
"&. c #493946",
"*. c #5B3A42",
"=. c #643C42",
"-. c #703D46",
";. c #004157",
":. c #044358",
">. c #0C465B",
",. c #1B4154",
"<. c #1A4359",
"1. c #144458",
"2. c #09565B",
"3. c #2E414A",
"4. c #35424D",
"5. c #39444B",
"6. c #244154",
"7. c #2B4153",
"8. c #274A5C",
"9. c #3C4A55",
"0. c #344C5E",
"q. c #3C4A58",
"w. c #374654",
"e. c #3B5258",
"r. c #164C61",
"t. c #004968",
"y. c #334D62",
"u. c #3A4F61",
"i. c #2D596A",
"p. c #385667",
"a. c #2C4E64",
"s. c #386676",
"d. c #58434B",
"f. c #434757",
"g. c #434C54",
"h. c #4D4E5E",
"j. c #574D58",
"k. c #48515A",
"l. c #5C505D",
"z. c #49434F",
"x. c #764348",
"c. c #604E57",
"v. c #764950",
"b. c #6E4C54",
"n. c #455765",
"m. c #535B64",
"M. c #625B65",
"N. c #5A656D",
"B. c #486977",
"V. c #546878",
"C. c #52757F",
"Z. c #626A71",
"A. c #7A7479",
"S. c #8C0200",
"D. c #830C0B",
"F. c #8A060F",
"G. c #9B0000",
"H. c #89100F",
"J. c #92110E",
"K. c #930F12",
"L. c #9A0F12",
"P. c #821414",
"I. c #891414",
"U. c #821D1D",
"Y. c #891B1B",
"T. c #951B1C",
"R. c #A41619",
"E. c #A51A1C",
"W. c #BB1211",
"Q. c #A3201D",
"!. c #891F23",
"~. c #832224",
"^. c #852B2C",
"/. c #8A2B2A",
"(. c #892527",
"). c #952E2E",
"_. c #962525",
"`. c #802E30",
"'. c #8B3333",
"]. c #803A3C",
"[. c #823434",
"{. c #933333",
"}. c #9B3535",
"|. c #963C3D",
" X c #A53E3E",
".X c #CA0307",
"XX c #DB0105",
"oX c #CE0E19",
"OX c #D00E19",
"+X c #D60B16",
"@X c #D8111B",
"#X c #E50D17",
"$X c #983F40",
"%X c #8B4143",
"&X c #89484A",
"*X c #9D4040",
"=X c #964748",
"-X c #84575C",
";X c #85595E",
":X c #9E5252",
">X c #985A5A",
",X c #A54749",
"<X c #A35A5A",
"1X c #B04A48",
"2X c #9A6F6C",
"3X c #866A6E",
"4X c #B27776",
"5X c #1F6D85",
"6X c #467786",
"7X c #6C7888",
"8X c #837C84",
"9X c #6B959D",
"0X c #9F928E",
"qX c #B58887",
"wX c #CD8D8E",
/* pixels */
"                                                                                                                                ",
"                                                                                                                                ",
"                                                                                                                                ",
"                                                                                                                                ",
"                                                                                                                                ",
"                                                                                                                                ",
"                                                                                                                                ",
"                                                                                                                                ",
"                                                                                                                                ",
"                                                                                                                                ",
"                                                                                                                                ",
"                                                              u.y.p.n.                                                          ",
"                                                          6X/ { <.] r 6.                                                        ",
"                                                          :.,.7.O.' 6.0 s.                                                      ",
"                                                        l.(  . . .,. ._ O.                                                      ",
"                                                        ;XB U.T T W G A D [.x W                                                 ",
"                                                        e.; qXK - - 2X3XX     b R                                               ",
"                                                        s.+ d r ' ) ] t ,     4Xz '.                                            ",
"                                                        s.w q  .0.i.' 4 ..      H %XR n S >X                                    ",
"                                                          e 7. .6.8.y.( V.      &Xz >X&X&X                                      ",
"                                                          C.u ` 0.y._ '           T - T                                         ",
"                                          OX                  4.8 X.                  ~                                         ",
"                                        OX        .X.X    i.g.f % 2 0.C.'.                                                      ",
"                                                        H { 1 > u , $ g ]                                                       ",
"                                                %XwX  j I i. .6 9 0 T -.t.; 4X                                                  ",
"                                                    x.0 O.=.j.Y.Q r.&.$.$.$ A.  N                                               ",
"                                    OXOX            C ^ *.~.E.*.&.h.i.8.b.U o k.                                                ",
"                                  OXOX          wXz H  X}.n S.d.m.;X~ Y v.X.> , 3X                                K.K.          ",
"                                  OXOX          $ 9 U }.).U./.B U.{.J.).~ C c 6 X                                 K.K.K.        ",
"                                OXOX          v @ ; -X*XN I.|.Y.n m m A (.).1X=., <                             K.K.K.K.        ",
"                              OXOXOX    XX  P & @     _.P.Z S A V n m D./.].,X:Xf X p.                      K.K.  K.K.          ",
"                              OXOXOX      =X+ .     *X,X{.U.P.Z I.T.D.N Y.~.b I.  t . Z.        K.    K.K.K.K.                  ",
"                              OXOXOX      s X     <X^.^.(.D.D.D.B N M P.|./.M >X    h X !       K.    K.K.                      ",
"                              OXOX    #X% X     :X<X:X'.Z n P.N n N I.}.:XU.n         8 >             K.K.                      ",
"                            OXoXOX    5 X           R $XN P.Y.P.I.M D.*X{.(.,X  wX      , t       L.    K.                      ",
"                            OX+X@X,X| 7 F.        N.K `.m P.P.P.I.U.n Z %XM.v.  =X        & q E     R.                          ",
"                          OXOX#X  s.5Xs         &Xe j.=X%XP.(.).N N *XU./.l.) 8X          e.y s.9X  S.E.                        ",
"                      OX  OXOX+X@Xl > )       0X$ [ Q v.b./.,X X_.J.%X].^ ^ %.;.~         5 e :.B.                              ",
"                      OX  OXOXoX    2.    XX  6X/ O.o.+.%.d.c.,X=X&Xx.Y R 0.&.i B.          s d {.                              ",
"                    OXOX  OXOX                ;. ...1.L I O.,.f.q.7.q.O.D.f.r.P <.              G.                              ",
"                    OXOXOXOXOX              0./  .} o.P ..o. .( p ,.l 7.j E a.%.F -X                                            ",
"                    OXOXOXOXOX              )  . .,.I U } I _ 3...[ L P +.T.^.8...z.      R.                                    ",
"                      OXOXOX              0.i  . . .} }  .7.0 m.h.g &.Q !.J  .6.<.{ !.              E.  E.                      ",
"                      OXOXOX              w  . . . . . . .7.u     f +. .}  .'  .6.>.Y               E.                          ",
"                      OXOXOX              _  . . . . .'  .l g     < ,. . .}  . .6.>.G W.                                        ",
"                    OXOXOXOX              r  .|  . ...@.7.< 9.    4.q #. . . . . .] Y                                           ",
"                    OXOXOXOX              w _ |  . . .&. .<         > #. . . .| | a                                             ",
"                    OXOXOXOX              7X0  . .|  .6.< m.        k.3  . .6.| q B.                                            ",
"                                            u  . .| i 3 w.            p < ` 6.#.<                                               ",
"                                            1 u | i  .n.                w.q _ p &                                               ",
"                                            @ 1 + j                       d.. , O                                               ",
"                                          m.+ 1 O                           # , + g.                                            ",
"                                          9.@ X 5.                          g.X @ @.                                            ",
"                                          5.O O                               * O j                                             ",
"                                          9 . 5.                              N.. 8                                             ",
"                                      j @ & O w.                              q.O & + k                                         ",
"                                  V., X > q 7.                                  0.i , X , p.                                    ",
"                                  ( ` u.V.                                          V.n.| r                                     ",
"                                                                                                                                ",
"                                                                                                                                ",
"                                                                                                                                ",
"                                                                                                                                ",
"                                                                                                                                ",
"                                                                                                                                "
};
