/* XPM */
static char *_df7bae70a124c93b15c303ac7c15c81[] = {
/* columns rows colors chars-per-pixel */
"64 64 207 2 ",
"   c None",
".  c #000001",
"X  c #00010A",
"o  c #0E0003",
"O  c #130002",
"+  c #19040B",
"@  c #000613",
"#  c #010A15",
"$  c #010C1A",
"%  c #090C15",
"&  c #100D16",
"*  c #03111D",
"=  c #0B141D",
"-  c #15131C",
";  c #20000A",
":  c #3A0203",
">  c #340509",
",  c #3D0B11",
"<  c #391218",
"1  c #021424",
"2  c #041924",
"3  c #0D1B24",
"4  c #031B2C",
"5  c #091D2B",
"6  c #131C23",
"7  c #191825",
"8  c #091F31",
"9  c #171F31",
"0  c #2C1E29",
"q  c #0E222E",
"w  c #00202E",
"e  c #11222A",
"r  c #19262E",
"t  c #052134",
"y  c #0E2534",
"u  c #0B263A",
"i  c #0D2A3D",
"p  c #042839",
"a  c #142634",
"s  c #1C2631",
"d  c #132C3C",
"f  c #1A2E3D",
"g  c #162C36",
"h  c #1C363E",
"j  c #2D242F",
"k  c #242E3F",
"l  c #24323B",
"z  c #2A363E",
"x  c #2D393F",
"c  c #353139",
"v  c #4B0201",
"b  c #5E0D0C",
"n  c #54080C",
"m  c #5A1114",
"M  c #640202",
"N  c #6D0000",
"B  c #6F0C0F",
"V  c #730202",
"C  c #7A0404",
"Z  c #740B0B",
"A  c #7B0C0D",
"S  c #7C0708",
"D  c #681718",
"F  c #7C1313",
"G  c #761C1C",
"H  c #771516",
"J  c #421C22",
"K  c #661F24",
"L  c #49252B",
"P  c #472E37",
"I  c #592B34",
"U  c #572C33",
"Y  c #49333D",
"T  c #6D2223",
"R  c #6D2529",
"E  c #7E2223",
"W  c #79282B",
"Q  c #612C33",
"!  c #712D32",
"~  c #693339",
"^  c #7A3335",
"/  c #0A2E43",
"(  c #132E41",
")  c #1B2F41",
"_  c #0E3445",
"`  c #153343",
"'  c #1B3344",
"]  c #17354A",
"[  c #1B3648",
"{  c #1D3C4E",
"}  c #173F4E",
"|  c #003851",
" . c #143B52",
".. c #1B3D52",
"X. c #223544",
"o. c #2B3745",
"O. c #2B3B43",
"+. c #233C4D",
"@. c #2B3C4C",
"#. c #283849",
"$. c #393A46",
"%. c #243F51",
"&. c #4A3D47",
"*. c #443945",
"=. c #543B44",
"-. c #5D3942",
";. c #683E45",
":. c #7D3C41",
">. c #164154",
",. c #1E4052",
"<. c #1A485C",
"1. c #2A414F",
"2. c #37434D",
"3. c #264254",
"4. c #2A4254",
"5. c #264659",
"6. c #294659",
"7. c #26485D",
"8. c #2D495B",
"9. c #344555",
"0. c #3C4D5C",
"q. c #354959",
"w. c #3E525C",
"e. c #024F6E",
"r. c #174D63",
"t. c #14546E",
"y. c #2D4E64",
"u. c #244E64",
"i. c #2E556B",
"p. c #3D5464",
"a. c #375060",
"s. c #2C5D75",
"d. c #444A4F",
"f. c #57444C",
"g. c #424E5A",
"h. c #474D56",
"j. c #574752",
"k. c #43505B",
"l. c #4D555C",
"z. c #4C595F",
"x. c #55555E",
"c. c #62474D",
"v. c #684148",
"b. c #7D4344",
"n. c #754745",
"m. c #654B53",
"M. c #754D55",
"N. c #65525A",
"B. c #445764",
"V. c #4C5A64",
"C. c #475768",
"Z. c #535966",
"A. c #645B63",
"S. c #705861",
"D. c #4E626D",
"F. c #53606C",
"G. c #496E79",
"H. c #586B78",
"J. c #756166",
"K. c #636D74",
"L. c #7C7179",
"P. c #830D0D",
"I. c #850707",
"U. c #831414",
"Y. c #891515",
"T. c #851C1C",
"R. c #8A1D1D",
"E. c #931A19",
"W. c #A51D19",
"Q. c #822325",
"!. c #8B2424",
"~. c #842B2C",
"^. c #8B2A2A",
"/. c #8C2827",
"(. c #962827",
"). c #892F31",
"_. c #8B3433",
"`. c #8D3B3C",
"'. c #843536",
"]. c #943333",
"[. c #953B3B",
"{. c #9A3C39",
"}. c #813F44",
"|. c #903F40",
" X c #8B4444",
".X c #8A4A4C",
"XX c #824446",
"oX c #964546",
"OX c #864E52",
"+X c #904D50",
"@X c #8C5355",
"#X c #8A5859",
"$X c #975555",
"%X c #A24747",
"&X c #A64B49",
"*X c #B04A46",
"=X c #AE5D5A",
"-X c #B85553",
";X c #896970",
":X c #A46566",
">X c #B36D6B",
",X c #B1706F",
"<X c #A17B7B",
"1X c #BC7574",
"2X c #437682",
"3X c #517482",
"4X c #A78889",
/* pixels */
"                                                                                                                                ",
"                                                                                                                                ",
"                                                                                                                                ",
"                                                                                                                                ",
"                                                                                                                                ",
"                                                                                                                                ",
"                                                                                                                                ",
"                                                                                                                                ",
"                                                                                                                                ",
"                                                                                                                                ",
"                                                                                                                                ",
"                                                            p.a.p.p.                                                            ",
"                                                          i  ...../ (                                                           ",
"                                                        } ` 6.%.+.%./ }                                                         ",
"                                                        f { ..,.,.+.X.k ;X                                                      ",
"                                                        M D K R T T G G '.D b                                                   ",
"                                                        O <X#X: : n.4X+     W b                                                 ",
"                                                        @ h ` _  .` g 1       v E :X                                            ",
"                                                        d y f 8.i.5.i d       T ^ ~.Z B $X                                      ",
"                                                        [ ] 4.+.6.y...5.        v .X.X X                                        ",
"                                                          u ` 6.y...i           b.: m                                           ",
"                                                            k.a f D.                b.                                          ",
"                                                        G.0.l = = O.2XXX                                                        ",
"                                                      T.#.p * y e & 0 u                                                         ",
"                                                %X    ; V.r.j 0 p L ).e.-  X                                                    ",
"                                                =X  = ) ~ Z.! Q.<.*.*.8.7 j.  Y.                                                ",
"                                                  e m v.Q W.~ &.j.i.r.j.=.+ c                                                   ",
"                                                v.o *.oXH I.Q x.#Xm.I }.&.w # A.                                                ",
"                                              l.O P '.`.T.^.G A ].E.(.:.R n < . J.                                              ",
"                                            @X# . m.:XF P.].].N V C F Q.!.-X#X2 *                                               ",
"                                            O X c.  L.D F H G U.V V S /.^ %X=XL X g                                             ",
"                                          q . x.  ,X+X XE T.F U.E.P.Z U./.M C   +.. l                                           ",
"                                        l . l.  1X`.T./.Y.P.P.C F C S ].].C Q.    > . w.                                        ",
"                                      k.. z     oX:X_./.N A Y.N S P.(.&X/.M $X      s .                                         ",
"                                    d.. 6         `.|.R.C R.A Y.P.C ].[.T.{.          - .                                       ",
"                                  p.. x           J `.C A P.U.Y.T.Z Z _.S.f.  >X@X      6 .                                     ",
"                                @.s.i           9 >.N..X!.Y.].U.V _._.T.M.| 3X            5 s.H.                                ",
"                                K.@ @         , i @.q.A.^.oX*X!.E.[.}.^ ;.~ | f.*X        5 ] #.                                ",
"                                  h.$.        t ..Y $.3.-.c.@X&XOXXXQ T.q.9.k 8.          6 %                                   ",
"                                            8.i @.+.>.} @.{ 9.h.5.9.9.B ~ t.=.9                                                 ",
"                                            4 +.+.{ I $.+.@.] i { o.@.o.R y.u.` p.                                              ",
"                                          4.( +.+.#.I 3.P $.+.z _ *.U <.+.+.7.7.'                                               ",
"                                          t +.+.+.+...+.@.( k.  8 3.%.+.+.+.+.3.i                                               ",
"                                        q.d +.+.+.+.+.+.3.t     5 %.+.+.+.+.+.3.` D.                                            ",
"                                        [ +.+.+.+.+.+.+.4.1     l ( +.+.+.+.+.4.] w.                                            ",
"                                        +.[ +.+.+.+.+.+.[ a     K.1 4.+.+.+.+.+.i w.                                            ",
"                                        B.4 +.+.+.+.+.4.1 Z.      g ` +.+.+.+.+.4                                               ",
"                                          ' ` %.+.+.4.i f           1 +.+.3.+.d q.                                              ",
"                                          g.y 4.+.' t y             B.1 ' 3.4.4                                                 ",
"                                          z 1 ' f f 0.                F.q f X.$ z.                                              ",
"                                          l $ 2 *                         X 3 @ 2.                                              ",
"                                          s 1 X h.                        r # * z                                               ",
"                                          3 * %                             X 1 g                                               ",
"                                          $ X V.                            O.X e                                               ",
"                                        h.@ *                                 . *                                               ",
"                                    g.3 # $ 4                                 $ * @ r                                           ",
"                                  #.@ @ 4 [ H.                                B.f 4 @ $ 4.                                      ",
"                                V.u q.C.                                          H.B.1.u                                       ",
"                                                                                                                                ",
"                                                                                                                                ",
"                                                                                                                                ",
"                                                                                                                                ",
"                                                                                                                                ",
"                                                                                                                                "
};
