/* XPM */
static char * door_wall_xpm[] = {
"64 64 109 2",
"  	c #26D5AA",
". 	c #1AAA86",
"+ 	c #0E3F33",
"@ 	c #23C29B",
"# 	c #132B23",
"$ 	c #121716",
"% 	c #132922",
"& 	c #132822",
"* 	c #132620",
"= 	c #199B7A",
"- 	c #12211C",
"; 	c #121F1C",
"> 	c #0F3A2F",
", 	c #121817",
"' 	c #12221D",
") 	c #12211D",
"! 	c #121D1A",
"~ 	c #121C19",
"{ 	c #121E1B",
"] 	c #121E1A",
"^ 	c #121B18",
"/ 	c #121A18",
"( 	c #121816",
"_ 	c #E8E8E8",
": 	c #1A1E1D",
"< 	c #171B1A",
"[ 	c #23C29A",
"} 	c #FFFFFF",
"| 	c #121B19",
"1 	c #23C19A",
"2 	c #DAD1D1",
"3 	c #199A79",
"4 	c #121917",
"5 	c #0F392F",
"6 	c #23C099",
"7 	c #121918",
"8 	c #23BF99",
"9 	c #121A17",
"0 	c #23BF98",
"a 	c #161B19",
"b 	c #23BE98",
"c 	c #26D4AA",
"d 	c #C3BBBB",
"e 	c #151918",
"f 	c #189878",
"g 	c #C2BBBA",
"h 	c #0F392E",
"i 	c #FEFEFE",
"j 	c #E3E3E3",
"k 	c #161A19",
"l 	c #22BC96",
"m 	c #26D4A9",
"n 	c #D9D0D0",
"o 	c #189676",
"p 	c #1AA985",
"q 	c #C2BABA",
"r 	c #189777",
"s 	c #141918",
"t 	c #0F382E",
"u 	c #22BE98",
"v 	c #22BD96",
"w 	c #189979",
"x 	c #C5BCBC",
"y 	c #E7E7E7",
"z 	c #181C1B",
"A 	c #C6BEBE",
"B 	c #1C1F1E",
"C 	c #191E1D",
"D 	c #1D2120",
"E 	c #191C1B",
"F 	c #1B1E1D",
"G 	c #121F1B",
"H 	c #12241F",
"I 	c #122620",
"J 	c #13251F",
"K 	c #132721",
"L 	c #12241D",
"M 	c #C7BFBF",
"N 	c #2F302F",
"O 	c #2A2C2B",
"P 	c #23C39B",
"Q 	c #132F26",
"R 	c #133329",
"S 	c #199C7B",
"T 	c #14372C",
"U 	c #23C39C",
"V 	c #143B2F",
"W 	c #13342A",
"X 	c #121D19",
"Y 	c #23C59D",
"Z 	c #155443",
"` 	c #154C3C",
" .	c #23C49D",
"..	c #24C69E",
"+.	c #165D4A",
"@.	c #155343",
"#.	c #24C59D",
"$.	c #145140",
"%.	c #165C49",
"&.	c #24C79F",
"*.	c #186E57",
"=.	c #16644F",
"-.	c #19A07E",
";.	c #14614C",
">.	c #145846",
",.	c #0E3C31",
"'.	c #112922",
").	c #112721",
"!.	c #0F3C30",
"        . .       . +             .     . +   @ # $ $ $ $ $ $ $ $ $ $ $ $ $ $ $ % @ . +           . .     . +       .           ",
"                  . +                   . +   @ & $ $ $ $ $ $ $ $ $ $ $ $ $ $ $ * @ . +                   . +               .   ",
". . . . . . . . . . + . . . . . . . . . . + . = - $ $ $ $ $ $ $ $ $ $ $ $ $ $ $ ; = . + . . . . . . . . . . + . . . . . . . . . ",
"+ + + + + + + + + + + + + + + + + + + + + + + > , $ $ $ $ $ $ $ $ $ $ $ $ $ $ $ , > + + + + + + + + + + + + + + + + + + + + + + ",
"      +                     +                 @ ' $ $ $ $ $ $ $ $ $ $ $ $ $ $ $ ) @           +                     +           ",
"    . +       . .         . +             . . @ ! $ $ $ $ $ $ $ $ $ $ $ $ $ $ $ ; @   .     . +                   . +           ",
"  . . +             .     . +     .           @ ~ $ $ $ $ $ $ $ $ $ $ $ $ $ $ $ { @         . +   .               . +     . .   ",
"    . +                   . +                 @ ~ $ $ $ $ $ $ $ $ $ $ $ $ $ $ $ ] @         . +                   . +           ",
". . . + . . . . . . . . . . + . . . . . . . . = ^ $ $ $ $ $ $ $ $ $ $ $ $ $ $ $ / = . . . . . + . . . . . . . . . . + . . . . . ",
"+ + + + + + + + + + + + + + + + + + + + + + + > ( $ $ $ $ $ $ $ $ $ $ $ $ $ $ $ ( > + + + + + + + + + + + + + + + + + + + + + + ",
"              +                     +         @ ~ $ $ $ $ $ $ $ $ $ $ $ $ $ $ $ ( @                   +                     +   ",
"            . +             . .   . +         _ : $ $ $ $ $ $ $ $ $ $ $ $ $ $ $ < [   . .           . +         .         . +   ",
"    . .     . +     . .           . +     } } [ | $ $ $ $ $ $ $ $ $ $ $ $ $ $ $ ( _ }               . +           . .     . +   ",
"            . +                   . + } }     1 ^ $ $ $ $ $ $ $ $ $ $ $ $ $ $ $ ( [   } }   . .     . +                   . +   ",
". . . . . . . + . . . . . . . . . } 2 . . . . 3 4 $ $ $ $ $ $ $ $ $ $ $ $ $ $ $ $ 3 . . . 2 2 . . . . + . . . . . . . . . . + . ",
"+ + + + + + + + + + + + + + + + 2 + + + + + + 5 $ $ $ $ $ $ $ $ $ $ $ $ $ $ $ $ $ 5 + + + + + 2 + + + + + + + + + + + + + + + + ",
"+                     +       }             + 6 / $ $ $ $ $ $ $ $ $ $ $ $ $ $ $ 7 1     +       }             +                 ",
"+           .       . +     }       . .   . + 6 / $ $ $ $ $ $ $ $ $ $ $ $ $ $ $ 7 6   . +     .   }         . +         .       ",
"+     .         . . . +   } .             . + 8 9 $ $ $ $ $ $ $ $ $ $ $ $ $ $ $ 4 6   . +           } . .   . +   . .       .   ",
"+                   . + }                 . + 0 a $ $ $ $ $ $ $ $ $ $ $ $ $ $ $ 4 b c . + .     .     }     . +                 ",
"+ . . . . . . . . . . 2 . . . . . . . . . . + d e $ $ $ $ $ $ $ $ $ $ $ $ $ $ $ 4 f . . + . . . . . . . 2 . . + . . . . . . . . ",
"+ + + + + + + + + + + 2 + + + + + + + + + + + g e $ $ $ $ $ $ $ $ $ $ $ $ $ $ $ $ h + + + + + + + + + + 2 + + + + + + + + + + + ",
"        +           }         +             i j k $ $ $ $ $ $ $ $ $ $ $ $ $ $ $ 4 l m           +         }           +         ",
"      . +     . .   }       . +         .   n j k $ $ $ $ $ $ $ $ $ $ $ $ $ $ $ 4 o p         . +         } .       . +         ",
". .   . +   .     } .   .   . +     . .     m j k $ $ $ $ $ $ $ $ $ $ $ $ $ $ $ 4 l m   . .   . +           }       . +       . ",
"      . +         }         . +             m q k $ $ $ $ $ $ $ $ $ $ $ $ $ $ $ 4 l m         . +     .     }   .   . +   . .   ",
". . . . + . . . . } . . . . . + . . . . . . p r s $ $ $ $ $ $ $ $ $ $ $ $ $ $ $ , o p . . . . . + . . . . . 2 . . . . + . . . . ",
"+ + + + + + + + 2 + + + + + + + + + + + + + + t $ $ $ $ $ $ $ $ $ $ $ $ $ $ $ $ $ t + + + + + + + + + + + + + 2 + + + + + + + + ",
"                }                     +   . m u 4 $ $ $ $ $ $ $ $ $ $ $ $ $ $ $ $ v m                   +     }               + ",
"      . .     . }   .       . .       +     c 0 4 $ $ $ $ $ $ $ $ $ $ $ $ $ $ $ $ b c     . .         . +     }             . + ",
".   .     .   . }       .         . . +     . f 9 $ $ $ $ $ $ $ $ $ $ $ $ $ $ $ $ b c                 . + .   } . .     .   . + ",
"              . }                     +       8 9 $ $ $ $ $ $ $ $ $ $ $ $ $ $ $ $ b c .       .       . +     }             . + ",
". . . . . . . . } . . . . . . . . . . + . . . w 4 $ $ $ $ $ $ $ $ $ $ $ $ $ $ $ s w . . . . . . . . . . + . . 2 . . . . . . . + ",
"+ + + + + + + + 2 + + + + + + + + + + + + + + 5 $ $ $ $ $ $ $ $ $ $ $ $ $ $ $ $ s x 2 + + + + + + + + + + + + 2 + + + + + + + + ",
"  +             }       +                     5 / $ $ $ $ $ $ $ $ $ $ $ $ $ $ $ a y     +                     } +               ",
". +         . . }     . +     . .           . 5 ^ $ $ $ $ $ $ $ $ $ $ $ $ $ $ $ < y . . +           . .       } +           . . ",
". +               }   . +             . .   . > ^ $ $ $ $ $ $ $ $ $ $ $ $ $ $ $ < _ } . +                   } . +     .         ",
". +   . .         }   . +   .               } > | $ $ $ $ $ $ $ $ $ $ $ $ $ $ $ z _ } . +     .             } . +               ",
". + . . . . . . . 2 . . + . . . . . . . . } } A / $ $ $ $ $ $ $ $ $ $ $ $ $ $ $ k A 2 . + . . . . . . . . . 2 . + . . . . . . . ",
"+ + + + + + + + + + 2 + + + + + + + + + + 2 2 A z $ $ $ $ $ $ $ $ $ $ $ $ $ $ $ < A + + + + + + + + + + + 2 + + + + + + + + + + ",
"          +         }           +           2 _ B $ $ $ $ $ $ $ $ $ $ $ $ $ $ $ C A             +         }             +       ",
"      . . +     . .   }   .   . +         .   A D $ $ $ $ $ $ $ $ $ $ $ $ $ $ $ E @     . .   . +       }       .     . +       ",
". .     . +           }       . +   . .       = F $ $ $ $ $ $ $ $ $ $ $ $ $ $ $ ! = .         . +   .   } . .         . +       ",
"        . +             }     . +             @ G $ $ $ $ $ $ $ $ $ $ $ $ $ $ $ ] @           . +     }               . +       ",
". . . . . + . . . . . . . 2 . . + . . . . . . = ! $ $ $ $ $ $ $ $ $ $ $ $ $ $ $ ~ = . . . . . . + . 2 . . . . . . . . . + . . . ",
"+ + + + + + + + + + + + + + 2 + + + + + + + + > ( $ $ $ $ $ $ $ $ $ $ $ $ $ $ $ ( > + + + + + + + 2 + + + + + + + + + + + + + + ",
"                  +           }         +     @ H $ $ $ $ $ $ $ $ $ $ $ $ $ $ $ ' @ +           }       +                     + ",
"                . +       .     }     . +     @ I $ $ $ $ $ $ $ $ $ $ $ $ $ $ $ G = +         }       . +                   . + ",
"  . .   .       . +             . } } . +     @ & $ $ $ $ $ $ $ $ $ $ $ $ $ $ $ J = +     } }     .   . +     . .     . .   . + ",
"                . +                   2 2     @ # $ $ $ $ $ $ $ $ $ $ $ $ $ $ $ K = + } }     .       . +         .         . + ",
". . . . . . . . . + . . . . . . . . . . + 2 2 = I $ $ $ $ $ $ $ $ $ $ $ $ $ $ $ L M 2 . . . . . . . . . + . . . . . . . . . . + ",
"+ + + + + + + + + + + + + + + + + + + + + + + M N $ $ $ $ $ $ $ $ $ $ $ $ $ $ $ O > + + + + + + + + + + + + + + + + + + + + + + ",
"    +                     +                   P / $ $ $ $ $ $ $ $ $ $ $ $ $ $ $ Q P         +                   +               ",
"  . +                   . +                   = ^ $ $ $ $ $ $ $ $ $ $ $ $ $ $ $ R P       . +           . .   . +               ",
"  . +     . .         . . +     . .     .     S | ( $ $ $ $ $ $ $ $ $ $ $ $ $ $ T U .     . +                 . +   . .     .   ",
"  . +             .     . +               .   S ~ ( $ $ $ $ $ $ $ $ $ $ $ $ $ $ V U       . +     .   .       . +               ",
". . + . . . . . . . . . . + . . . . . . . . . S ! ( $ $ $ $ $ $ $ $ $ $ $ $ $ $ W S . . . . + . . . . . . . . . + . . . . . . . ",
"+ + + + + + + + + + + + + + + + + + + + + + + > ] $ $ $ $ $ $ $ $ $ $ $ $ $ $ $ X > + + + + + + + + + + + + + + + + + + + + + + ",
"            +                     +           Y Z , $ $ $ $ $ $ $ $ $ $ $ $ $ $ `  .                  +                     +   ",
"          . +                   . +           ..+.4 $ $ $ $ $ $ $ $ $ $ $ $ $ $ @.#.                . +             .     . +   ",
".       . . +     . .     .     . +       .   ..$.4 $ $ $ $ $ $ $ $ $ $ $ $ $ $ %...  . .       .   . +     . .         . . +   ",
"      .   . +               .   . +           &.*.^ ( $ $ $ $ $ $ $ $ $ $ $ $ $ =.&.        .       . +                   . +   ",
". . . . . . + . . . . . . . . . . + . . . . . -.;./ ( $ $ $ $ $ $ $ $ $ $ $ $ $ >.-.. . . . . . . . . + . . . . . . . . . . + . ",
"+ + + + + + + + + + + + + + + + + + + + + + + ,.'.( $ $ $ $ $ $ $ $ $ $ $ $ $ ( ).!.+ + + + + + + + + + + + + + + + + + + + + + "};
