/* XPM */
static char * knight2_xpm[] = {
"64 64 342 2",
"  	c None",
". 	c #36C8C8",
"+ 	c #B8FCFC",
"@ 	c #A8A8A8",
"# 	c #FBCA30",
"$ 	c #FAA513",
"% 	c #A1807D",
"& 	c #A38582",
"* 	c #6C9390",
"= 	c #9F8684",
"- 	c #978887",
"; 	c #00E4E4",
"> 	c #FCFCFC",
", 	c #FCD452",
"' 	c #F1CD41",
") 	c #DEC091",
"! 	c #D6CAC2",
"~ 	c #DEBAAD",
"{ 	c #996948",
"] 	c #C59B8F",
"^ 	c #BD9C97",
"/ 	c #B2A1A1",
"( 	c #7F7B7B",
"_ 	c #9CFCFC",
": 	c #E5A73E",
"< 	c #F5EA77",
"[ 	c #EFCF7D",
"} 	c #E0C4A9",
"| 	c #F3DEAF",
"1 	c #BEEBBC",
"2 	c #D2AF81",
"3 	c #CA9B8A",
"4 	c #BC9B97",
"5 	c #968888",
"6 	c #646464",
"7 	c #20FCFC",
"8 	c #E08C79",
"9 	c #E9B773",
"0 	c #EAB187",
"a 	c #E9C081",
"b 	c #D9F19E",
"c 	c #F4EB8D",
"d 	c #D4C354",
"e 	c #C89C6A",
"f 	c #B68277",
"g 	c #5F7E7C",
"h 	c #1B8383",
"i 	c #00B4B4",
"j 	c #B99796",
"k 	c #ECA39C",
"l 	c #E3AE92",
"m 	c #CFE495",
"n 	c #FAF290",
"o 	c #FBF395",
"p 	c #EFE471",
"q 	c #C8A45A",
"r 	c #9E6147",
"s 	c #6D5551",
"t 	c #253F3F",
"u 	c #B8FAFA",
"v 	c #9B8281",
"w 	c #9BD2CE",
"x 	c #B5D1BB",
"y 	c #F1E995",
"z 	c #F7EF64",
"A 	c #FAF275",
"B 	c #E4D434",
"C 	c #DBB584",
"D 	c #B77665",
"E 	c #6F3F3A",
"F 	c #989898",
"G 	c #008484",
"H 	c #04CBCB",
"I 	c #70F2F2",
"J 	c #93DEDC",
"K 	c #CBD2C5",
"L 	c #EED9AD",
"M 	c #E2C424",
"N 	c #F5DB66",
"O 	c #CFA419",
"P 	c #D8A388",
"Q 	c #958B83",
"R 	c #637D7C",
"S 	c #0E6F6F",
"T 	c #7C7C7C",
"U 	c #EBE7E7",
"V 	c #80E8E7",
"W 	c #B37167",
"X 	c #E8CFC3",
"Y 	c #C27731",
"Z 	c #E9B492",
"` 	c #B5601F",
" .	c #D19B92",
"..	c #8F504A",
"+.	c #447F7F",
"@.	c #007070",
"#.	c #00CCCC",
"$.	c #EBEBEB",
"%.	c #5BF3F3",
"&.	c #935C5A",
"*.	c #E2DAD7",
"=.	c #A54D3A",
"-.	c #E0B1AB",
";.	c #983A23",
">.	c #C7A2A0",
",.	c #5E2A29",
"'.	c #108181",
").	c #004040",
"!.	c #D0D0D0",
"~.	c #40FAFA",
"{.	c #847878",
"].	c #DBEDED",
"^.	c #814341",
"/.	c #D8BFBE",
"(.	c #6C2A28",
"_.	c #B8A8A8",
":.	c #89564B",
"<.	c #7C7D76",
"[.	c #817776",
"}.	c #009C9C",
"|.	c #9BFBFB",
"1.	c #D6F9F9",
"2.	c #7D7979",
"3.	c #CECCCC",
"4.	c #555353",
"5.	c #C3A7A2",
"6.	c #BEB371",
"7.	c #CEAA56",
"8.	c #B66F64",
"9.	c #484848",
"0.	c #979797",
"a.	c #B3B3B3",
"b.	c #DBDADA",
"c.	c #CFCFCF",
"d.	c #BFBFBF",
"e.	c #B48E86",
"f.	c #E2B35F",
"g.	c #EBC345",
"h.	c #D09833",
"i.	c #8F7776",
"j.	c #947575",
"k.	c #907676",
"l.	c #897878",
"m.	c #887574",
"n.	c #C6705A",
"o.	c #E5B937",
"p.	c #D3B22F",
"q.	c #C0C0C0",
"r.	c #CFCACA",
"s.	c #B08C8B",
"t.	c #DCB7B4",
"u.	c #F9D6D2",
"v.	c #DBB4AF",
"w.	c #D9BDBB",
"x.	c #B1A1A1",
"y.	c #5B5252",
"z.	c #794B49",
"A.	c #B54A26",
"B.	c #B04627",
"C.	c #7E4644",
"D.	c #BF813C",
"E.	c #DCDCDC",
"F.	c #F9F8F8",
"G.	c #FCE9E9",
"H.	c #DFB2AE",
"I.	c #CB8871",
"J.	c #D29563",
"K.	c #D48D4E",
"L.	c #BC6E4A",
"M.	c #966057",
"N.	c #5A3736",
"O.	c #3C3736",
"P.	c #3E3434",
"Q.	c #209292",
"R.	c #289393",
"S.	c #77918E",
"T.	c #6A5B51",
"U.	c #5B5353",
"V.	c #545454",
"W.	c #B4B4B4",
"X.	c #D8FCFC",
"Y.	c #FBFBFB",
"Z.	c #F7F3F3",
"`.	c #E1DFDE",
" +	c #D7CDC2",
".+	c #F2C58E",
"++	c #F3DE6A",
"@+	c #F4E26C",
"#+	c #F1C483",
"$+	c #A8BEB3",
"%+	c #79BAB9",
"&+	c #3BC7C7",
"*+	c #02B2B2",
"=+	c #009B9B",
"-+	c #038484",
";+	c #018484",
">+	c #ECECEC",
",+	c #D4F1F1",
"'+	c #CDDCDA",
")+	c #DCC8B6",
"!+	c #FAD87A",
"~+	c #FAF07B",
"{+	c #FAEC8A",
"]+	c #DFC661",
"^+	c #C19B7B",
"/+	c #9DC1BB",
"(+	c #6ABFBE",
"_+	c #2FC9C9",
":+	c #B7F3F3",
"<+	c #CBDDDC",
"[+	c #F8C7B8",
"}+	c #FCD384",
"|+	c #F1EB77",
"1+	c #F7E57D",
"2+	c #E0C450",
"3+	c #D0A76F",
"4+	c #B3BCAB",
"5+	c #89B7B2",
"6+	c #53C4C3",
"7+	c #18B3B3",
"8+	c #FC4040",
"9+	c #BDBCBC",
"0+	c #C9AFAE",
"a+	c #F9CBC4",
"b+	c #FBBFA0",
"c+	c #E2CD85",
"d+	c #F6CD5D",
"e+	c #ECC942",
"f+	c #DFC961",
"g+	c #C2D49F",
"h+	c #9CB8A9",
"i+	c #69BFBD",
"j+	c #2FB1B1",
"k+	c #005858",
"l+	c #707070",
"m+	c #00FCFC",
"n+	c #FC5454",
"o+	c #FC2020",
"p+	c #BFB7B7",
"q+	c #CD9998",
"r+	c #DD8C7F",
"s+	c #E79669",
"t+	c #F3C14C",
"u+	c #F9DA69",
"v+	c #EEE084",
"w+	c #C9D379",
"x+	c #A2BEA6",
"y+	c #72BEBB",
"z+	c #36B1B1",
"A+	c #FC7C7C",
"B+	c #EC0000",
"C+	c #D40000",
"D+	c #D00000",
"E+	c #9A7171",
"F+	c #BA6B62",
"G+	c #D78A66",
"H+	c #E8C34F",
"I+	c #F1E268",
"J+	c #E2DB6F",
"K+	c #C2D17F",
"L+	c #9EAD94",
"M+	c #6EA9A6",
"N+	c #34B1B1",
"O+	c #0C9C9C",
"P+	c #0C8484",
"Q+	c #383838",
"R+	c #FC9C9C",
"S+	c #D30000",
"T+	c #BD0100",
"U+	c #CE1E00",
"V+	c #D74800",
"W+	c #D4A66C",
"X+	c #D8C15C",
"Y+	c #C1B33E",
"Z+	c #AD9B56",
"`+	c #8E8271",
" @	c #5D7F7D",
".@	c #2F6E6E",
"+@	c #356D6D",
"@@	c #2E5655",
"#@	c #095757",
"$@	c #2C2C2C",
"%@	c #8C8C8C",
"&@	c #B90000",
"*@	c #C50600",
"=@	c #CF2700",
"-@	c #C28C7C",
";@	c #C18E6F",
">@	c #A6662C",
",@	c #94522F",
"'@	c #6C443B",
")@	c #3D3F3E",
"!@	c #183C3C",
"~@	c #823E35",
"{@	c #955035",
"]@	c #743A33",
"^@	c #242020",
"/@	c #BB0000",
"(@	c #C30500",
"_@	c #AD8E8B",
":@	c #AA837E",
"<@	c #724339",
"[@	c #643E39",
"}@	c #515352",
"|@	c #0C3E3E",
"1@	c #7A3938",
"2@	c #C66F1E",
"3@	c #CBAF37",
"4@	c #96611B",
"5@	c #3A0500",
"6@	c #BC0000",
"7@	c #9C9696",
"8@	c #918988",
"9@	c #3E3939",
"0@	c #A85F44",
"a@	c #968B6F",
"b@	c #466C6B",
"c@	c #7C3A39",
"d@	c #BF7333",
"e@	c #C2AF36",
"f@	c #8D5F1B",
"g@	c #8A8A8A",
"h@	c #593331",
"i@	c #B77C41",
"j@	c #A5A96D",
"k@	c #526E6B",
"l@	c #125555",
"m@	c #764641",
"n@	c #804232",
"o@	c #49403D",
"p@	c #8B8B8B",
"q@	c #3A3636",
"r@	c #665551",
"s@	c #63817C",
"t@	c #1E6F6F",
"u@	c #484747",
"v@	c #393838",
"w@	c #014040",
"x@	c #7CFCF8",
"y@	c #202020",
"z@	c #5CFCFC",
"A@	c #000000",
"                                                                                                                                ",
"                                                                .                                     + @                       ",
"                                                      # $   % & * = -                       ;         @ > @                     ",
"                                                      , ' ) ! ~ { ] ^ / (                   ;           _ >                     ",
"                                                      : < [ } | 1 2 3 4 5 6                 ;         @ 7 > @                   ",
"                                                      8 9 0 a b c d e f g h               i ; i       7 7 + +                   ",
"                                                      j k l m n o p q r s t               i ; i       7 ; + >                   ",
"                                                    u v w x y z A B C D E t F             i ; G     7 i ; + >                   ",
"                                                    H I J K L M N O P Q R S T           ; i ; 7 7 7 i i ; + >                   ",
"                                                    F U V W X Y Z `  ...+.@.6         ; #.i ; i i i i i ; + >                   ",
"                                                    @.$.%.&.*.=.-.;.>.,.'.@.).        #.i i ; ; ; ; i i ; + >                   ",
"                                                      !.~.{.].^./.(._.:.<.[.        ; i }.i ; G G #.; i ; + >                   ",
"                                                      T !.|.1.2.3.4.5.6.7.8.        #.}.G i ; i }.G i #.; + >                   ",
"                                                      9.T 0.a.b.c.d.e.f.g.h.        #.G   i ; i i G G ; ; + >                   ",
"                                                      9.3.i.j.k.l.( m.n.o.p.        }.    i ; @.@.}.G i ; + >                   ",
"                                            T q.q.q.c.r.s.t.u.v.w.x.y.z.A.B.C.D.          i ; @.  @.G }.; + >                   ",
"                                      T E.E.q.!._ _ F.G.H.I.J.K.L.M.N.O.P.Q.R.S.T.U.9.V.V.i ; @.    G G ; + +                   ",
"                                    W.X.X.; i _ _ Y.Z.`. +.+++@+#+$+%+&+*+=+G -+;+@.9.@.@.i ; @.      G + + @                   ",
"                                  T >+> X.; i >+>+Y.,+'+)+!+~+{+]+^+/+(+_+i }.G G @.).}.i i ; @.      G + +                     ",
"                                  W.X.>+; i >+!.q.Y.:+<+[+}+|+1+2+3+4+5+6+7+}.G @.@.).G G i ; @.@.    ; + +                     ",
"                                  W.X.+ i >+> 8+q.q.9+0+a+b+c+d+e+f+g+h+i+j+}.G @.k+).l+l+i ; @.@.    @ + @                     ",
"                                  m+>+m+>+> n+8+o+T d.p+q+r+s+t+u+v+w+x+y+z+}.G @.k+).6 6 i ; @.@.    @ +                       ",
"                              W.m+>+m+>+> A+n+8+o+B+C+D+E+F+G+H+I+J+K+L+M+N+O+P+k+Q+).).).i ; @.k+    + @                       ",
"                                  T V.>+R+A+n+8+o+B+C+S+T+U+V+W+X+Y+Z+`+ @.@+@@@#@$@).k+k+i ; @.k+k+                            ",
"                                  @ %@>+R+A+n+8+o+B+C+C+&@*@=@-@;@>@,@'@)@!@~@{@]@^@).G i i ; @.k+                              ",
"                                  @ + >+R+A+n+8+o+B+C+C+/@/@(@_@:@<@[@}@|@1@2@3@4@5@).G i i ; @.k+                              ",
"                                  @ + >+R+A+n+8+o+B+C+C+6@6@6@7@8@9@0@a@b@c@d@e@f@  @.G i i ; @.k+                              ",
"                                  + + >+R+A+n+8+o+B+C+C+6@6@6@F g@h@i@j@k@l@m@n@o@  @.G G i ; @.G k+                            ",
"                                + + i !.R+A+n+8+o+B+C+C+6@6@6@F p@q@r@s@t@k+u@v@w@  G i ; x@x@@.@.k+                            ",
"                              + + i + !.R+A+n+8+o+B+C+C+6@6@6@F %@$@k+@.k+k+9.).      i + + i }.@.).k+                          ",
"                              + @ }.m+!.R+A+n+8+o+B+C+C+6@6@6@F %@$@k+k+k+k+V.).      i x@x@}.}.@.).k+                          ",
"                              !.@ }.}.!.R+A+n+8+o+B+C+C+6@6@6@F %@).@.}.}.G G V.).    i + x@i }.@.).k+                          ",
"                              !.@ k+%@!.R+A+n+8+o+B+C+C+6@6@6@F %@).@.i i }.G @.k+).    + x@i }.@.).k+                          ",
"                                T T k+!.R+A+n+8+o+B+C+C+6@6@6@F %@k+@.i i i }.@.k+).    i i i ).).k+                            ",
"                                  T T !.R+A+n+8+o+B+C+C+6@6@6@F %@@.@.@.@.k+k+).).      @.@.@.@.G                               ",
"                                      !.R+A+n+8+o+B+C+C+6@6@6@F %@$@$@).).).).).Q+        G @.@.                                ",
"                                        !.A+n+8+o+B+C+C+6@6@6@F %@$@Q+9.k+k+k+).Q+        i }.@.                                ",
"                                        !.A+n+8+o+B+C+C+6@6@T %@y@Q+k+@.@.6 k+).Q+        i ; @.                                ",
"                                        !.R+n+8+o+B+C+C+6@6@@ %@y@9.@.G @.6 k+).Q+        i ; @.                                ",
"                                          !.n+8+o+B+C+C+6@T %@$@).9.@.G @.6 k+).Q+        #.#.@.                                ",
"                                            !.8+o+B+C+C+T %@k+$@).9.@.G @.6 k+).Q+        #.#.@.                                ",
"                                              !.o+B+C+@ %@@.k+$@).k+@.G @.6 k+).Q+        #.i k+                                ",
"                                                W.W.W.@.@.@.k+$@).k+@.G @.6 k+).Q+        #.i k+                                ",
"                                                ; #.i }.@.@.k+).).k+@.G G }.k+).Q+        #.}.k+                                ",
"                                                + + #.}.G @.k+).).k+@.G }.#.@.k+Q+        i }.k+                                ",
"                                                + 7 ; }.G @.@.).Q+@.G i i #.}.k+).).      i G ).                                ",
"                                              + 7 ; #.}.G G @.k+Q+G i i #.; }.@.k+).      i G ).                                ",
"                                              i G G G G G G @.k+Q+k+@.@.@.k+k+k+).).    i x@x@i @.                              ",
"                                                i @.@.k+k+k+).).y@).).).).).).).).      i ; ; i @.                              ",
"                                                  #.i G G @.@.k+y@G }.}.@.@.@.k+          i G ).                                ",
"                                                  #.z@#.i G G k+y@}.#.#.i @.@.k+        i x@; i @.                              ",
"                                                  #.z@> #.G G k+y@}.; #.x@@.@.k+        i ; ; i @.                              ",
"                                                  #.z@> ; G @.k+y@}.#.#.m+@.k+            i G ).                                ",
"                                                  i #.> _ G @.k+y@G 7 + G @.k+          i x@; i @.                              ",
"                                                    #.#.; G @.k+y@G G G i @.k+          i ; ; i @.                              ",
"                                                    #.#.}.@.@.).$@G i #.G k+).            i G ).                                ",
"                                                    i 7 #.@.k+).$@G G G }.k+            i x@; i @.                              ",
"                                                      ; #.@.k+).$@@.i #.G k+            i ; ; i @.                              ",
"                                                    #.G k+).).).$@@.G @.@.@.k+            i G ).                                ",
"                                                  > z@#.G G @.).$@@.}.; ; }.}.k+        i x@; i @.                              ",
"                                                > z@z@#.}.@.@.).$@k+i ; + z@i }.k+V.V.V.i ; ; i @.V.6 6 6                       ",
"                                              z@> z@#.i }.@.k+).$@k+i #.z@+ z@#.}.k+$@$@$@i G ).$@Q+Q+9.9.V.V.V.V.6 6 6 6       ",
"                                            z@> z@#.i }.@.k+).A@$@$@@.@.#.; + z@#.@.A@A@A@A@i @.y@y@$@$@Q+Q+Q+9.9.9.9.V.V.6 6   ",
"                                            #.#.}.}.@.@.).A@$@$@V.6 6 V.$@@.@.@.@.@.Q+Q+Q+Q+Q+Q+Q+Q+Q+Q+Q+9.9.9.V.V.6 6 6 6 6   "};
