/* XPM */
static char * knight1_xpm[] = {
"64 64 180 2",
"  	c None",
". 	c #00CCCC",
"+ 	c #B8FCFC",
"@ 	c #A8A8A8",
"# 	c #8C8C8C",
"$ 	c #009C9C",
"% 	c #00E4E4",
"& 	c #FCFCFC",
"* 	c #7C7C7C",
"= 	c #7CFCF8",
"- 	c #D0D0D0",
"; 	c #005858",
"> 	c #9CFCFC",
", 	c #B9FAFA",
"' 	c #BBF7F7",
") 	c #EAE4E3",
"! 	c #63F6F6",
"~ 	c #A7A7A7",
"{ 	c #646464",
"] 	c #20FCFC",
"^ 	c #B4B4B4",
"/ 	c #83F8F4",
"( 	c #C0EBEA",
"_ 	c #DDB5AE",
": 	c #AECFC8",
"< 	c #E6B9B6",
"[ 	c #9B7271",
"} 	c #8B8A8A",
"| 	c #008484",
"1 	c #00B4B4",
"2 	c #B4B1B1",
"3 	c #D9CAC8",
"4 	c #EBB5A4",
"5 	c #DCC691",
"6 	c #F5B96D",
"7 	c #F09D71",
"8 	c #E29287",
"9 	c #976F6F",
"0 	c #045757",
"a 	c #004040",
"b 	c #918887",
"c 	c #9ED4D0",
"d 	c #DBC490",
"e 	c #F8DE77",
"f 	c #F9E457",
"g 	c #F9C440",
"h 	c #E07327",
"i 	c #CD908B",
"j 	c #7F7776",
"k 	c #989898",
"l 	c #63F2F2",
"m 	c #B3C8C3",
"n 	c #ECBD7B",
"o 	c #FAE85C",
"p 	c #FBEC56",
"q 	c #FCCC3A",
"r 	c #EC900F",
"s 	c #D58478",
"t 	c #548F8F",
"u 	c #058383",
"v 	c #007070",
"w 	c #E6E4E4",
"x 	c #ABCBCA",
"y 	c #E47C3D",
"z 	c #FAC53E",
"A 	c #FAC933",
"B 	c #F9B439",
"C 	c #E9890E",
"D 	c #D77E6F",
"E 	c #8E4C47",
"F 	c #497F7F",
"G 	c #016F6F",
"H 	c #E9E9E9",
"I 	c #7EDEDE",
"J 	c #CF543D",
"K 	c #F49467",
"L 	c #F38C11",
"M 	c #F78F3C",
"N 	c #E6690C",
"O 	c #DD816C",
"P 	c #9A4021",
"Q 	c #777876",
"R 	c #416C6C",
"S 	c #48F0F0",
"T 	c #B36260",
"U 	c #EE968A",
"V 	c #E76819",
"W 	c #F28E4C",
"X 	c #E48F1A",
"Y 	c #E9A35B",
"Z 	c #C96837",
"` 	c #90746C",
" .	c #937474",
"..	c #D1CACA",
"+.	c #BDD6D3",
"@.	c #E9B6A3",
"#.	c #E6A438",
"$.	c #F5C850",
"%.	c #F7C34D",
"&.	c #F5B841",
"*.	c #D78D57",
"=.	c #A87065",
"-.	c #9B7170",
";.	c #484848",
">.	c #8C7777",
",.	c #C2847C",
"'.	c #E3A272",
").	c #F7DE5E",
"!.	c #FAEF58",
"~.	c #FBE941",
"{.	c #F6C32D",
"].	c #E68A50",
"^.	c #C4695C",
"/.	c #814240",
"(.	c #D2C9C9",
"_.	c #B27267",
":.	c #D39351",
"<.	c #ECD64C",
"[.	c #F9EF8E",
"}.	c #F8E95A",
"|.	c #EEBB33",
"1.	c #DB7648",
"2.	c #B44D40",
"3.	c #744242",
"4.	c #C0C0C0",
"5.	c #9C9595",
"6.	c #DABCB8",
"7.	c #FCD1BC",
"8.	c #EFCF7C",
"9.	c #F3E076",
"0.	c #EED057",
"a.	c #DB912D",
"b.	c #C55938",
"c.	c #96342F",
"d.	c #423535",
"e.	c #545454",
"f.	c #DCDCDC",
"g.	c #D0CFCF",
"h.	c #A59190",
"i.	c #BC8B81",
"j.	c #C48A5C",
"k.	c #CC9743",
"l.	c #CD8A42",
"m.	c #BB5926",
"n.	c #9E3A2D",
"o.	c #573533",
"p.	c #019A9A",
"q.	c #D8FCFC",
"r.	c #ECE9E9",
"s.	c #C0F0F0",
"t.	c #C8E6E3",
"u.	c #E5C3BE",
"v.	c #8EC9C5",
"w.	c #7CB9B7",
"x.	c #4CC2C2",
"y.	c #0BB2B2",
"z.	c #ECECEC",
"A.	c #EDE8E7",
"B.	c #45AEAE",
"C.	c #41AFAF",
"D.	c #2AE0E0",
"E.	c #06CBCB",
"F.	c #54FCFC",
"G.	c #039C9C",
"H.	c #01B4B4",
"I.	c #FC4040",
"J.	c #707070",
"K.	c #00FCFC",
"L.	c #FC5454",
"M.	c #FC2020",
"N.	c #FC7C7C",
"O.	c #EC0000",
"P.	c #D40000",
"Q.	c #383838",
"R.	c #FC9C9C",
"S.	c #BC0000",
"T.	c #2C2C2C",
"U.	c #202020",
"V.	c #000000",
"W.	c #5CFCFC",
"                                                                                                                                ",
"                                                                .                                     + @                       ",
"                                                            # # $ # #                       %         @ & @                     ",
"                                                        * = + - ; @ @ @ *                   %           > &                     ",
"                                                      * = , ' ) ! ~ @ @ # {                 %         @ ] & @                   ",
"                                                      ^ / ( _ : < [ } # | |               1 % 1       ] ] + +                   ",
"                                                      2 3 4 5 6 7 8 9 0 ; a               1 % 1       ] % + &                   ",
"                                                    + b c d e f g h i j a a k             1 % |     ] 1 % + &                   ",
"                                                    . l m n o p q r s t u v *           % 1 % ] ] ] 1 1 % + &                   ",
"                                                    k w x y z A B C D E F G {         % . 1 % 1 1 1 1 1 % + &                   ",
"                                                    v H I J K L M N O P Q R a         . 1 1 % % % % 1 1 % + &                   ",
"                                                      - S T U V W X Y Z `  .        % 1 $ 1 % | | . % 1 % + &                   ",
"                                                      * ..+.@.#.$.%.&.*.=.-.        . $ | 1 % 1 $ | 1 . % + &                   ",
"                                                      ;.>.,.'.).!.~.{.].^./.        . |   1 % 1 1 | | % % + &                   ",
"                                                      ;.(._.:.<.[.}.|.1.2.3.        $     1 % v v $ | 1 % + &                   ",
"                                            * 4.4.4.- - 5.6.7.8.9.0.a.b.c.d.e.e.          1 % v   v | $ % + &                   ",
"                                      * f.f.4.- > > & & g.h.i.j.k.l.m.n.o.p.$ $ ; e.;.e.e.1 % v     | | % + +                   ",
"                                    ^ q.q.% 1 > > & & q.+ r.s.t.u.v.w.x.y.$ | | | v ;.v v 1 % v       | + + @                   ",
"                                  * z.& q.% 1 z.z.& q.+ + & , A.B.C.D.E.. 1 $ | | v a $ 1 1 % v       | + +                     ",
"                                  ^ q.z.% 1 z.- 4.& + + & & F.f.G.H.% . . 1 $ | v v a | | 1 % v v     % + +                     ",
"                                  ^ q.+ 1 z.& I.4.4.4.4.& & F.- $ 1 % . . 1 $ | v ; a J.J.1 % v v     @ + @                     ",
"                                  K.z.K.z.& L.I.M.* 4.4.^ ^ ^ ^ ^ 1 1 . . 1 $ | v ; a { { 1 % v v     @ +                       ",
"                              ^ K.z.K.z.& N.L.I.M.O.P.P.* * k k # ; 1 1 1 1 $ | ; Q.a a a 1 % v ;     + @                       ",
"                                  * e.z.R.N.L.I.M.O.P.P.S.S.S.k # ; v | | v v ; ; T.a ; ; 1 % v ; ;                             ",
"                                  @ # z.R.N.L.I.M.O.P.P.S.S.S.k # Q.Q.a a a a a Q.U.a | 1 1 % v ;                               ",
"                                  @ + z.R.N.L.I.M.O.P.P.S.S.S.k # a a ; a a T.T.U.V.a | 1 1 % v ;                               ",
"                                  @ + z.R.N.L.I.M.O.P.P.S.S.S.k # a ; | v a ;.Q.U.  v | 1 1 % v ;                               ",
"                                  + + z.R.N.L.I.M.O.P.P.S.S.S.k # Q.; | v ; ;.Q.a   v | | 1 % v | ;                             ",
"                                + + 1 - R.N.L.I.M.O.P.P.S.S.S.k # Q.; | v ; ;.Q.a   | 1 % = = v v ;                             ",
"                              + + 1 + - R.N.L.I.M.O.P.P.S.S.S.k # T.; v ; ; ;.a       1 + + 1 $ v a ;                           ",
"                              + @ $ K.- R.N.L.I.M.O.P.P.S.S.S.k # T.; ; ; ; e.a       1 = = $ $ v a ;                           ",
"                              - @ $ $ - R.N.L.I.M.O.P.P.S.S.S.k # a v $ $ | | e.a     1 + = 1 $ v a ;                           ",
"                              - @ ; # - R.N.L.I.M.O.P.P.S.S.S.k # a v 1 1 $ | v ; a     + = 1 $ v a ;                           ",
"                                * * ; - R.N.L.I.M.O.P.P.S.S.S.k # ; v 1 1 1 $ v ; a     1 1 1 a a ;                             ",
"                                  * * - R.N.L.I.M.O.P.P.S.S.S.k # v v v v ; ; a a       v v v v |                               ",
"                                      - R.N.L.I.M.O.P.P.S.S.S.k # T.T.a a a a a Q.        | v v                                 ",
"                                        - N.L.I.M.O.P.P.S.S.S.k # T.Q.;.; ; ; a Q.        1 $ v                                 ",
"                                        - N.L.I.M.O.P.P.S.S.* # U.Q.; v v { ; a Q.        1 % v                                 ",
"                                        - R.L.I.M.O.P.P.S.S.@ # U.;.v | v { ; a Q.        1 % v                                 ",
"                                          - L.I.M.O.P.P.S.* # T.a ;.v | v { ; a Q.        . . v                                 ",
"                                            - I.M.O.P.P.* # ; T.a ;.v | v { ; a Q.        . . v                                 ",
"                                              - M.O.P.@ # v ; T.a ; v | v { ; a Q.        . 1 ;                                 ",
"                                                ^ ^ ^ v v v ; T.a ; v | v { ; a Q.        . 1 ;                                 ",
"                                                % . 1 $ v v ; a a ; v | | $ ; a Q.        . $ ;                                 ",
"                                                + + . $ | v ; a a ; v | $ . v ; Q.        1 $ ;                                 ",
"                                                + ] % $ | v v a Q.v | 1 1 . $ ; a a       1 | a                                 ",
"                                              + ] % . $ | | v ; Q.| 1 1 . % $ v ; a       1 | a                                 ",
"                                              1 | | | | | | v ; Q.; v v v ; ; ; a a     1 = = 1 v                               ",
"                                                1 v v ; ; ; a a U.a a a a a a a a       1 % % 1 v                               ",
"                                                  . 1 | | v v ; U.| $ $ v v v ;           1 | a                                 ",
"                                                  . W.. 1 | | ; U.$ . . 1 v v ;         1 = % 1 v                               ",
"                                                  . W.& . | | ; U.$ % . = v v ;         1 % % 1 v                               ",
"                                                  . W.& % | v ; U.$ . . K.v ;             1 | a                                 ",
"                                                  1 . & > | v ; U.| ] + | v ;           1 = % 1 v                               ",
"                                                    . . % | v ; U.| | | 1 v ;           1 % % 1 v                               ",
"                                                    . . $ v v a T.| 1 . | ; a             1 | a                                 ",
"                                                    1 ] . v ; a T.| | | $ ;             1 = % 1 v                               ",
"                                                      % . v ; a T.v 1 . | ;             1 % % 1 v                               ",
"                                                    . | ; a a a T.v | v v v ;             1 | a                                 ",
"                                                  & W.. | | v a T.v $ % % $ $ ;         1 = % 1 v                               ",
"                                                & W.W.. $ v v a T.; 1 % + W.1 $ ; e.e.e.1 % % 1 v e.{ { {                       ",
"                                              W.& W.. 1 $ v ; a T.; 1 . W.+ W.. $ ; T.T.T.1 | a T.Q.Q.;.;.e.e.e.e.{ { { {       ",
"                                            W.& W.. 1 $ v ; a V.T.T.v v . % + W.. v V.V.V.V.1 v U.U.T.T.Q.Q.Q.;.;.;.;.e.e.{ {   ",
"                                            . . $ $ v v a V.T.T.e.{ { e.T.v v v v v Q.Q.Q.Q.Q.Q.Q.Q.Q.Q.Q.;.;.;.e.e.{ { { { {   "};
