/* XPM */
static char *_e5e4a35ec3d423f956cc84b87b554aeq4kBk0N1Wo47pYIZ[] = {
/* columns rows colors chars-per-pixel */
"64 64 167 2 ",
"   c None",
".  c #000002",
"X  c #00010B",
"o  c #140000",
"O  c #15050E",
"+  c #000613",
"@  c #010A15",
"#  c #0A0D16",
"$  c #010D1A",
"%  c #05111C",
"&  c #0B131A",
"*  c #0D191F",
"=  c #3A0203",
"-  c #000F22",
";  c #021524",
":  c #071822",
">  c #0D1B25",
",  c #021A2C",
"<  c #081D2B",
"1  c #121B24",
"2  c #131D28",
"3  c #001C33",
"4  c #261720",
"5  c #0E212E",
"6  c #12212A",
"7  c #19262E",
"8  c #072134",
"9  c #0D2435",
"0  c #072438",
"q  c #0C2639",
"w  c #05283B",
"e  c #0C2A3C",
"r  c #142634",
"t  c #182530",
"y  c #1C2C37",
"u  c #102739",
"i  c #122C3D",
"p  c #192D3C",
"a  c #162C35",
"s  c #1C363E",
"d  c #202B35",
"f  c #2F2934",
"g  c #232E3C",
"h  c #2C2D38",
"j  c #3E2B36",
"k  c #312C3A",
"l  c #25313A",
"z  c #2A353E",
"x  c #30383E",
"c  c #4B0201",
"v  c #5E0000",
"b  c #5E0D0C",
"n  c #530B0E",
"m  c #5D161E",
"M  c #5B1213",
"N  c #620606",
"B  c #6C0000",
"V  c #6F0C0F",
"C  c #730301",
"Z  c #720B0B",
"A  c #661312",
"S  c #6F1815",
"D  c #64191B",
"F  c #6A1C1C",
"G  c #7C1513",
"H  c #7B1916",
"J  c #741718",
"K  c #761D1C",
"L  c #7A1A19",
"P  c #721214",
"I  c #521820",
"U  c #661F24",
"Y  c #43272F",
"T  c #4D282E",
"R  c #52272D",
"E  c #5A2429",
"W  c #432C35",
"Q  c #5D2E36",
"!  c #672226",
"~  c #6D2223",
"^  c #6D2429",
"/  c #7F2224",
"(  c #7F2D2D",
")  c #783434",
"_  c #052C44",
"`  c #0C2F42",
"'  c #132E41",
"]  c #073347",
"[  c #0D3342",
"{  c #153243",
"}  c #1B3344",
"|  c #15354A",
" . c #1B3648",
".. c #173E4F",
"X. c #1C3C4D",
"o. c #163C51",
"O. c #1B3C52",
"+. c #223545",
"@. c #2B3544",
"#. c #243947",
"$. c #2C3A44",
"%. c #243C4D",
"&. c #2A3C4A",
"*. c #343E44",
"=. c #243E51",
"-. c #174357",
";. c #1A4154",
":. c #1E415A",
">. c #2A414F",
",. c #37434D",
"<. c #3A454C",
"1. c #264153",
"2. c #2A4253",
"3. c #254459",
"4. c #28475B",
"5. c #27485B",
"6. c #2A495D",
"7. c #364957",
"8. c #314758",
"9. c #3D4F5D",
"0. c #394B57",
"q. c #3D515C",
"w. c #1E4C62",
"e. c #2C4C63",
"r. c #304E65",
"t. c #2F5066",
"y. c #2E5269",
"u. c #345164",
"i. c #3D5565",
"p. c #3E596B",
"a. c #2C5D75",
"s. c #444A4F",
"d. c #444D55",
"f. c #4A4F56",
"g. c #424E59",
"h. c #45515B",
"j. c #48555B",
"k. c #4C595F",
"l. c #754745",
"z. c #7E4445",
"x. c #445663",
"c. c #435967",
"v. c #4B5B65",
"b. c #465B6E",
"n. c #505A63",
"m. c #555D6A",
"M. c #485F72",
"N. c #4E626D",
"B. c #52616C",
"V. c #446A7C",
"C. c #556976",
"Z. c #5A6C77",
"A. c #5A6C7A",
"S. c #636D74",
"D. c #821614",
"F. c #802C2E",
"G. c #823232",
"H. c #893C3C",
"J. c #894647",
"K. c #8C4A4C",
"L. c #8D5E5D",
"P. c #985151",
"I. c #9D5758",
"U. c #896970",
"Y. c #A16161",
"T. c #A17B7B",
"R. c #A78889",
/* pixels */
"                                                                                                                                ",
"                                                                                                                                ",
"                                                                                                                                ",
"                                                                                                                                ",
"                                                                                                                                ",
"                                                                                                                                ",
"                                                                                                                                ",
"                                                                                                                                ",
"                                                                                                                                ",
"                                                                                                                                ",
"                                                                                                                                ",
"                                                            i.u.i.i.                                                            ",
"                                                          e o.O.O.` '                                                           ",
"                                                        X.{ 4.=.%.=._ ..                                                        ",
"                                                        y X.O.;.;.%.+.g U.                                                      ",
"                                                        N F U ^ ~ ~ K K G.A b                                                   ",
"                                                        o T.L.= = l.R.O     ( b                                                 ",
"                                                        + s { [ o.{ a ;       c / Y.                                            ",
"                                                        i 9 p 6.y.3.u i       ~ ) F.Z V P.                                      ",
"                                                         . .1.%.4.e.:.1.        c K.K.J.                                        ",
"                                                          q { 4.e.O.0           z.= M                                           ",
"                                                            9.r p B.                z.                                          ",
"                                                        q.x.g % & *.v.                                                          ",
"                                                      A._ 9 @ 2 > $ 8 3                                                         ",
"                                                      - e.1.y 2 > p 6.:.@                                                       ",
"                                                    . } e.=.%.=.1.6.e.u.; #                                                     ",
"                                                  & @ 6.6.%.#.3.e.6.4.r. .. z                                                   ",
"                                                d . 5 e.4.%.#.1.e.4.4.t.} $ . n.                                                ",
"                                              j.. % &.e.3.%.%.2.e.6.6.3.M.z . .                                                 ",
"                                              . .     | 3.O...o.-.-.;.o.p.  <.. X                                               ",
"                                            X . z   V.w +.@.k k f h g i e     l . *                                             ",
"                                          & . 0.    Q m F S J L L K K D I       2 . z                                           ",
"                                        l . <.      B G H L K L K L H H C         % . j.                                        ",
"                                      g.. x       K.v H D.G G G G G D.D.C I.        1 .                                         ",
"                                    s.. 1         H P ! E T W W j j Y R n H.          & .                                       ",
"                                  i.. *.          4 &.=.;.-.-.-.-.-.-.w.-.g             1 .                                     ",
"                                &.a.e           | ] ;.%.%.%.%.%.%.%.%.3.y._ i.            < a.Z.                                ",
"                                S.+ +         N., 1.%.%.%.%.%.%.%.%.%.1.6.e.,             < | @.                                ",
"                                  f.*.        , %.%.%.%.%.%.%.%.%.%.%.%.4.e.| #.          2 #                                   ",
"                                            2.q %.%.%.%.%.%.%.%.%.%.%.%.1.6.e.8                                                 ",
"                                            , %.%.%.%.%.%.%. .p #.%.%.%.%.3.e.{ 9.                                              ",
"                                          1.' %.%.%.%.%.%.%.&.z { 1.%.%.#.=.6.5.{                                               ",
"                                          8 %.%.%.%.%.%.%.' h.  8 1.%.%.%.%.=.1.e                                               ",
"                                        7.i %.%.%.%.%.%.1.8     < =.%.%.%.%.#.1.{ N.                                            ",
"                                         .%.%.%.%.%.%.%.2.;     l ' %.%.%.%.%.2.| q.                                            ",
"                                        #. .%.%.%.%.%.%. .r     S.; 2.%.%.%.%.%.e q.                                            ",
"                                        c., #.%.%.%.#.2.; m.      a { %.%.%.#.%.,                                               ",
"                                          { { =.#.#.1.e p           ; %.%.1.#.i 7.                                              ",
"                                          g.9 1.#.} 8 9             x.; } 1.2.,                                                 ",
"                                          z : } p p 9.                B.5 p +.$ k.                                              ",
"                                          l $ : %                         X > + ,.                                              ",
"                                          t : X d.                        7 @ % z                                               ",
"                                          : % @                             X ; y                                               ",
"                                          $ X v.                            $.X 6                                               ",
"                                        d.+ %                                 . %                                               ",
"                                    g.> @ $ ,                                 $ % + 7                                           ",
"                                  #.+ + ,  .C.                                c.p , + $ 2.                                      ",
"                                v.0 8.b.                                          A.c.>.0                                       ",
"                                                                                                                                ",
"                                                                                                                                ",
"                                                                                                                                ",
"                                                                                                                                ",
"                                                                                                                                ",
"                                                                                                                                "
};
