/* XPM */
static char *_92b3eb0cc4044be88168d079dc14bc1[] = {
/* columns rows colors chars-per-pixel */
"64 75 208 2 ",
"   c None",
".  c #878082",
"X  c #9C9C8F",
"o  c #8F9695",
"O  c #959198",
"+  c #9D939C",
"@  c #9DA096",
"#  c #90A09F",
"$  c #A0A59C",
"%  c #A9A29E",
"&  c #928EA7",
"*  c #9C9CA4",
"=  c #989BAA",
"-  c #9E9EB1",
";  c #A495AA",
":  c #9AA2A8",
">  c #9AA2A5",
",  c #A3A5A4",
"<  c #ACA5A3",
"1  c #A4A4AA",
"2  c #A8A1A9",
"3  c #B0ADA1",
"4  c #B3ADAB",
"5  c #BEB9A6",
"6  c #B5B4AC",
"7  c #BCB5AC",
"8  c #BDBBAD",
"9  c #B4B4A2",
"0  c #AEAEB2",
"q  c #ACACBB",
"w  c #A2ABB0",
"e  c #B2AFB5",
"r  c #B0AEBC",
"t  c #A7BAB9",
"y  c #AEB5BA",
"u  c #B3B3B6",
"i  c #BCB5B3",
"p  c #B7B8B6",
"a  c #BCBBB4",
"s  c #BDB4BB",
"d  c #BCBBBC",
"f  c #B5B6BC",
"g  c #C5B3A7",
"h  c #C8BFA5",
"j  c #C3BCAD",
"k  c #C9BEAF",
"l  c #C4B6B3",
"z  c #C4BCB3",
"x  c #CABEB4",
"c  c #C3BDBB",
"v  c #CABFB9",
"b  c #B9C0AA",
"n  c #BFC3BD",
"m  c #C3C1AC",
"M  c #CBC1AD",
"N  c #C5C2B5",
"B  c #CBC2B4",
"V  c #CDC9B7",
"C  c #C5C3BC",
"Z  c #CCC4BB",
"A  c #C4C8BF",
"S  c #CDCABC",
"D  c #C5CDB1",
"F  c #D1C6B5",
"G  c #D2CBB5",
"H  c #D8C9B7",
"J  c #D2C6BB",
"K  c #D8C5BC",
"L  c #D2CABB",
"P  c #D9CCBE",
"I  c #DAD2BB",
"U  c #D4D0BB",
"Y  c #E4D2B9",
"T  c #E1E1BF",
"R  c #B4B5C2",
"E  c #BFB6C2",
"W  c #B6BAC3",
"Q  c #BFBDC5",
"!  c #BBBBC9",
"~  c #B5B3C8",
"^  c #C2BDC1",
"/  c #C1BFC8",
"(  c #C3B5C8",
")  c #B4C6C0",
"_  c #BFC0C7",
"`  c #BFC7C8",
"'  c #BDC9C2",
"]  c #BFCFD2",
"[  c #C3C2C3",
"{  c #CBC5C3",
"}  c #CCCAC3",
"|  c #C4C3C9",
" . c #CBC5CA",
".. c #C6CBCC",
"X. c #CCCBCC",
"o. c #D2C6C3",
"O. c #D3CCC3",
"+. c #D9CDC2",
"@. c #D1C7CB",
"#. c #D2CDCB",
"$. c #CDD2C3",
"%. c #CDD3CC",
"&. c #D5D1C4",
"*. c #DBD3C4",
"=. c #DADAC6",
"-. c #D3D3CB",
";. c #DCD5CB",
":. c #D6DBCE",
">. c #DCD9CC",
",. c #CBC7D0",
"<. c #CECED5",
"1. c #C4CDD0",
"2. c #D2CFD2",
"3. c #D3CEDE",
"4. c #C7D5D4",
"5. c #CED3D4",
"6. c #CFD4D8",
"7. c #D5D3D3",
"8. c #DAD4D2",
"9. c #DDDCD5",
"0. c #D5D7DE",
"q. c #DAD4DA",
"w. c #D5DCDC",
"e. c #DCDADA",
"r. c #E2D2C2",
"t. c #E1DBC5",
"y. c #E4D6CE",
"u. c #E3DCCC",
"i. c #E9DDCF",
"p. c #E1D5D3",
"a. c #E3DDD3",
"s. c #EADDD3",
"d. c #E3DEDB",
"f. c #E8DFDD",
"g. c #DDE2D6",
"h. c #DCE2DC",
"j. c #E4E0CE",
"k. c #E9E2CD",
"l. c #E4E2D4",
"z. c #EBE4D4",
"x. c #E7E8D4",
"c. c #EDEAD5",
"v. c #E5E3DC",
"b. c #EAE5DA",
"n. c #E7E9DD",
"m. c #EDEADC",
"M. c #F2EAD5",
"N. c #F0E6D9",
"B. c #F2ECDC",
"V. c #F7F4D2",
"C. c #F5F2DC",
"Z. c #FAF5DE",
"A. c #FFFDDC",
"S. c #D9D4E0",
"D. c #D6DEE3",
"F. c #DBDAE9",
"G. c #E5DFE6",
"H. c #DDE3E2",
"J. c #DEE1EF",
"K. c #E5E4E2",
"L. c #EAE4E5",
"P. c #E5EAE5",
"I. c #EDECE3",
"U. c #E9E7E9",
"Y. c #E7E8E8",
"T. c #EDECEC",
"R. c #F3EDE3",
"E. c #F9EEE2",
"W. c #F2EEEB",
"Q. c #FBE6E3",
"!. c #EEF1E4",
"~. c #EDF3EC",
"^. c #EEF9EB",
"/. c #F5F2E3",
"(. c #FAF4E5",
"). c #F7F8E6",
"_. c #FEFBE6",
"`. c #F4F4EB",
"'. c #FCF6EA",
"]. c #F6FAEB",
"[. c #FFF8EB",
"{. c #FFFAE9",
"}. c #FFFDE9",
"|. c #FFF9EC",
" X c #FEFAED",
".X c #FFFFEF",
"XX c #FFFDEE",
"oX c #FEFBEB",
"OX c #EEECF3",
"+X c #E4E6F1",
"@X c #EBF3F5",
"#X c #EEFAF0",
"$X c #F5F4F1",
"%X c #FAF6F0",
"&X c #F5FBF3",
"*X c #FEFBF1",
"=X c #FFFEF0",
"-X c #FFFFF5",
";X c #FFFFF6",
":X c #FFFFF7",
">X c #FFFEF3",
",X c #FCF6F8",
"<X c #FFFFFB",
"1X c #FFFFF8",
"2X c #FFFFFF",
"3X c #FFFDFF",
"4X c #FFFFFC",
"5X c #F6F2F9",
/* pixels */
"                                                                                                                                ",
"                                                                                                                                ",
"                                                                                                                                ",
"                                                                                                                                ",
"                                                                                                                                ",
"                                            = W ! q               6.w.D.>                                                       ",
"                                          } 8.#.#.#.e.^       Z R.;X=X.X<X2X<.~                                                 ",
"                                        ;.y.+.J L L o.>.O.< B *.(..XoXoX}.'.<X2X/                                               ",
"                                      d.*.F S L J S J B O.;.S *. X=X'.'.'.oXoX.X<XW.                                            ",
"                                    ..a.S L L L J J J J J S B m.;X'.'.'.'.'.oXoXoX2X2X                                          ",
"                                    w.O.L L L L J L J x B S B R.<X'. XoXoX X X XoX*X2XR                                         ",
"                                  ` } S L L L J L S Z 7.} B B N.=X=X'.L.G.R..X X XoX;XT.                                        ",
"                                  5.A V L L L J J B -.;X@XB B z.;X;Xa.K.`.K.R..X.X_.A.2X                                        ",
"                                  ..} S L L L S B O.L c.;XK.o.N.*Xe.B z..X}.K.`.`.Z.A.;XR                                       ",
"                                  5.} B B B S L s.A L oX_..XP.E.8.6 t. XoXoX'.(.`.m.V..XJ.                                      ",
"                                  | } S e.#.j u.;Xa.z E.<XW.v. X .a Z.;X(._._.(. X^./..X+X                                      ",
"                                  * c I.2X&XO.R.<X(.x b.`.8.(.=XW.| S B..X=XoX'.*X`./.}.T.                                      ",
"                                  4 < I.;X}.`.`.h.T.s.:.v.(.=X;XoX} 4 >..Xz.(.oX;X,XB.;Xd                                       ",
"                                ^ u.>.m. X=X&Xa.S $X$XB.oX;X<X=X*.z { S L j R..Xu.T./.2XX                                       ",
"                            a < j c.;X_..X&Xe.^ &.;X`.E.;X;X=Xb.N S #.C C z ;.9.-.I._.'.e.%.h.4Xt                               ",
"                        2 p.t.C.u.Z._.'.W.-.t.q.[ m.R. X.XB.u.L 8 &.'.K.v.oX2.d (.=X(.O.~.2X4X~.&X2Xw                           ",
"                        +.r.'.=X.XoXoXW.c 5 z.<Xm.| I.<XoXL 5 L *.u.}.2X=X.XoX/.oX}.(.7 x.<XT.Y. X;X2XZ                         ",
"                        B r.;X'.oXoXA._.-.m u.`.R.e.v.I.a.j j L I.]./././.R._.}._.}.b.C /.=X;XOXR._.`.2X                        ",
"                        v s.=XoX_.}._.;XP.7 } o.Z } C C Z 6 j O.`. X'./.`.T.K.R.}.(.[ b.'.E.oXR.I.9.h.2XH.                      ",
"                        r &.R.;XoXR.T.OX[ [ o.L L J F B L L B B.;X'.oXoXoX=X'.5X$X(.{ S j j n.'.e.h.m.I.2X                      ",
"                          @ *.m..Xm.c z n $.L L L S B B B x x R.;XoXoX X XoX X=XT.m.c.&.;.l.m.=XR.-.v.%X<X#                     ",
"                          a L (._.;X8.B %.S L L B B u.m.N.B.z.N.%X<X;X'.'. X.XA._.H./..X.X=X}.I..Xj.K.;X;X)                     ",
"                        1 -.L B.oXd.} Z [ } L B L B.=X;X X X X`.!.v.v.v.W.`.'.A._.OX'._.oX}.e.K.`.'.'.oX2X4.                    ",
"                        @.#.G h z.8.x Z c #.Z B b.2XoXn.`.W.I.!.=.u.z.N._.].T./.=X-.;.oX_.(.q.'.'.I. X=X2X]                     ",
"                      e ;.v S S #.X.S *.7 c O.B R.*XO.b.oXu.a.*.;.;X=X=XoX_.XXOXI.a.l.`.&XI.c i.=X`.W.=X2X                      ",
"                    , [ 8.+.C _ ^ L L Z C N S B (.L.l (.C.k.oX(.(.oXoXoXoXoXoX*X/.`.=X.X!.%.3 J (.$XL.<X,X                      ",
"                  r Z.m.;Xn.g L L Z  .| 2.O.Z B /.v.l u.;X=X.X=X.XoXoX.X.XoX_._._./.W.W.a b c./.(.`.W.2X0.                      ",
"                  3.'.=X}.'.-.J C ' X.#.o.o.O.B z.b.x B z.<X=Xv.v./.'.z.(.;X}.oXoX'.!.!.-.b.=X=X.X(.2XW.                        ",
"                    R.}._.<X2X[ c #.J J L Z Z Z Z O.L B 7 ;.v.!./.).$X#.B l.oX;XoXoX_._.*XW.oX'.oX=X2X                          ",
"                    Y _._.l.~. .K K L L Z C z C v x N Z a.a.u..X.X_.}.&X} j *.m.(.oX'.'.oXT.*X.XoX2XK.                          ",
"                  e 8.#.} 7 [ } G H L Z C o.O.u.B.l.a >. XR.=XoX.X}._.=Xv.x L z.(._._.oX=XW.-.C.=XT.                            ",
"                  ,  .c [ v s C F P J v #.).&X`..X<Xa.S B.m.=X*X=X(.(.=X-.B s.`.I.(._.oX;X-.8 (.=X$X                            ",
"                  < +.-.+.x a g.-.B Z C -.<X=X`.I.oX8.*.;XB.(.R.Z *.a.P.} x X.'.].@X/.).W.c S }.oX2X*                           ",
"                  < +.O.K C $.;Xa.7 Z Z N u..X_.I.`.Z B -.S } n S `.W.{ { a 8 c.}.}./.v.U.#.9 T }.2X0                           ",
"                  . ;.Z P z v.;XK.{ B l x *.oX X}.`.v.8.>.l.7.p k.<X$.M J O.L c.}._._.}.`.P.X.A >.=.                            ",
"                    f.O.C d b..X=Xv.c K R.=XoXoX'._.`.=XI.>.O.L L -.D M a.=X.X.XoXoXoX}./.&XI.v.K.%.                            ",
"                    d 8.^ d.=XoX}.b.x L  X<XoX'. XoX.X=X:Xl.M M F j a l u.2X;X XoXoXoXoX(.~.w.oX=X2Xy                           ",
"                      7.x Q.2X`.'./.#.l L m.oX X.X.X.X}.*XT.b.>.} } 7.X.b l./.'.oXoXoXoX}.].T.W.}.2X5.                          ",
"                      ! *.;.e.g./././.-.a m '.2X;.>.;X;XT./.=X=X`.T.;XXX-.7 B '.N.m.=X}.oXoX.XT.(.2Xw.                          ",
"                        X.} z N.}././.=X9.z u.k.N c 8.I.`..XoX_.}. X(.=X'.C x b./.>./.}.oXoX_.I.I.2X1.                          ",
"                        C c.'.oX.X'./.;XR.C j 6 9.;Xv.(.=X=X_.oX_._._.oX(.W.v I <X(.m..X}..X.XT.I.2XW                           ",
"                        Z B.<XoX.X).;.(.2Xv.n d G (.<X=X/.a.(..X_.oXoX}.(.u.x P oX;XoXm.=X(.`.W.'.2X:                           ",
"                        + l.c..X.X=Xm.v.S.R.'.#.B G L *.B B  X.XoXoXoXoX}.m. .Z U ;.B k >.x 8. X;X`.                            ",
"                          ^ *.;X_.-.`.W.7.Z..X8.v B ;.O.Z B b.<X=X.X=XoX.X`.Q C C S ;.O.7 C b.=X2X,                             ",
"                          c I N./.u i l.v.L.&Xv.l O.oX-.^ B S a.b.b.>.(.=XI.C z *.=X.Xj.#.K.L.<XOX                              ",
"                            B L ,. .B $ C 1X*XI. .J A C Z Z 7 B n.v.#.a./.!.-.x M./.!.-.} ,X=Xe.                                ",
"                            f +.Z J C N u.}.}.2X#.7 n L F J x z.2X=X<Xv.d.'.O.Z 7.z b.$XI.;X;Xo                                 ",
"                            | L F C i m.<X_..X7.x x [ B *./.(..X/.(.}.'.W..X#.p x ;./.=X=X.X$X&                                 ",
"                            ,.J C A >.`..X.X.X9.v F a S (.<X=Xu.*.`.}._.n.`.v.d j B.<X_.oX_.;XF.                                ",
"                            2.{ [ V  XoXu./.Z.=XH.>.Z S (.;X;.&. X.X(._..X X.Xv.Z j z.;X=X.X'.P.                                ",
"                            | N N c..X(.z.c.B.~.5. .o.x u..XN..X.X(._.}.v.I.'.I.(.} S /.a.W.m.#X                                ",
"                            ^ G Z.;X}.=X(.B.;X..x F S S u.oX=X/./.}.}.9. .`.`.$XI.>.B x { a./.2X                                ",
"                             .y.s.z.L v.>.O.v.c } Z x B.<X.X/.L (.=X=X#.L =X=X=Xd.} } [ /.}.2X@X                                ",
"                            O p.[ d z i } 9.&.Z P.$X+.z.;X=Xu.B oXI.d.B S  X.X.XI.-.v./..X}.2XD.                                ",
"                              C 8.c #.v z ;.;.*.}.;X/.z z.;Xz.j o.C +.a./.=XoX=X9.B z..X}.}.m.                                  ",
"                              i y.Z B { S }.2X XoXoX_.n.v.'..X;.6 u.;X.X/.(.}. X'.P.z *.b.a.%                                   ",
"                                 .+.B a C z.`. XoX_.}.<X`.E..X=X} u.<X=XB.u.u.m.;X2X:.S q.(                                     ",
"                                q #.P F c s z R.<X_.z.e.I..X=X(.} N k./.B.(._.B.*X,Xe.d -                                       ",
"                                   .#.+.K i z u.b.9.s < -.`.9.v.N 7 p a 7 r.s.;X..                                              ",
"                                    2  .y.a.Z a 8 Z C B u.*Xs.;X~.-.9.I.`.O.S R                                                 ",
"                                        e u } b.a.&.} o.i.=X;X}.=X'.=X7.e.R.Z                                                   ",
"                                            1 M.m.;Xr E *.L ].=X}.|.;X                                                          ",
"                                                  d     { *.z.l.-.'.[                                                           ",
"                                                          ; c 6 p s                                                             ",
"                                                                                                                                ",
"                                                                                                                                ",
"                                                                                                                                ",
"                                                                                                                                ",
"                                                                                                                                ",
"                                                                                                                                "
};
