/* XPM */
static char *_4dbde9f712d4d9f8156e72883663da5[] = {
/* columns rows colors chars-per-pixel */
"64 75 186 2 ",
"   c None",
".  c #88887C",
"X  c #8A8182",
"o  c #85808C",
"O  c #8E8B8B",
"+  c #918C87",
"@  c #8B8A97",
"#  c #9F9F94",
"$  c #9C959D",
"%  c #9F9E9D",
"&  c #A7A59E",
"*  c #9E9EA7",
"=  c #9D9EAC",
"-  c #A099AB",
";  c #9FABAA",
":  c #AAA5A3",
">  c #A1ABA0",
",  c #ABA9A3",
"<  c #A5A4AA",
"1  c #AAA2AC",
"2  c #A6AAAD",
"3  c #ACADAC",
"4  c #B1A9A7",
"5  c #BBACAD",
"6  c #B5B2A3",
"7  c #BAB6A4",
"8  c #B4B3AD",
"9  c #BBB6AD",
"0  c #B0B8AC",
"q  c #A5A3B1",
"w  c #A7ABB2",
"e  c #B0AEB0",
"r  c #B0AABA",
"t  c #A7B1B2",
"y  c #ADB0B8",
"u  c #B4B2B5",
"i  c #B9B2B5",
"p  c #B6BCB4",
"a  c #BBBBB5",
"s  c #B5B4BA",
"d  c #B8B5B9",
"f  c #B4B8BD",
"g  c #BCBBBC",
"h  c #C5BEAE",
"j  c #C5BCB5",
"k  c #C9BFB3",
"l  c #C2BBBC",
"z  c #B4C0AC",
"x  c #BDC0A8",
"c  c #BFC1B4",
"v  c #BDC3BE",
"b  c #C9C0A3",
"n  c #CBC2AD",
"m  c #CBC8AF",
"M  c #D9C8AF",
"N  c #C4C1B5",
"B  c #CBC4B4",
"V  c #CDCCB3",
"C  c #C4C3BD",
"Z  c #CAC4BB",
"A  c #C2C8B8",
"S  c #CBCBBA",
"D  c #D2C6B4",
"F  c #D4C7BC",
"G  c #D3CCBB",
"H  c #D9CCBC",
"J  c #D4D5BD",
"K  c #DDD2BF",
"L  c #E2D6BC",
"P  c #B4B4C2",
"I  c #B3B8C0",
"U  c #BCBCC3",
"Y  c #BDB9C9",
"T  c #C2BCC1",
"R  c #C3BBCA",
"E  c #B9C3C4",
"W  c #C4C3C3",
"Q  c #CCC3C2",
"!  c #C3CBC5",
"~  c #CCCCC3",
"^  c #C4C3CC",
"/  c #CEC6CB",
"(  c #CBCACA",
")  c #D4CCC2",
"_  c #D0C6CD",
"`  c #D2CDCB",
"'  c #D9CECD",
"]  c #C9D2C0",
"[  c #D5D3C3",
"{  c #DBD4C5",
"}  c #DCDBC4",
"|  c #D4D3C8",
" . c #DAD5CC",
".. c #DEDAC9",
"X. c #C3C6D7",
"o. c #C8C4D3",
"O. c #C3CAD2",
"+. c #CBCCD4",
"@. c #CCCDD9",
"#. c #CED2DA",
"$. c #D4D2D4",
"%. c #DDD4D1",
"&. c #D0DAD4",
"*. c #DADAD3",
"=. c #D7D4DD",
"-. c #DBDDDB",
";. c #E1CDC0",
":. c #E2D4C5",
">. c #E5DBC4",
",. c #E3D4CC",
"<. c #E8D7CA",
"1. c #E3DCCC",
"2. c #E8DFCD",
"3. c #EBD4D1",
"4. c #E0DDD3",
"5. c #EBDFD4",
"6. c #E1DED9",
"7. c #EBDED9",
"8. c #DEE1D5",
"9. c #DEE4DB",
"0. c #DFE9DF",
"q. c #E4E1C3",
"w. c #E5E3CD",
"e. c #ECE5CF",
"r. c #EBEACA",
"t. c #E6E2D3",
"y. c #EBE4D2",
"u. c #EEEAD6",
"i. c #E5E3D8",
"p. c #EAE4DB",
"a. c #E1E8DF",
"s. c #EEEADC",
"d. c #F3EBD3",
"f. c #F2E7D8",
"g. c #F9E3DF",
"h. c #F2ECDB",
"j. c #FFFAD7",
"k. c #F4F1DB",
"l. c #FBF2DC",
"z. c #F9F8DE",
"x. c #CED8E0",
"c. c #DDD5E4",
"v. c #DBDDE3",
"b. c #DBDDEE",
"n. c #E2DEE4",
"m. c #DDE2E6",
"M. c #E2E3E2",
"N. c #ECEBE2",
"B. c #E5E1EC",
"V. c #E6E8EE",
"C. c #EAEDEC",
"Z. c #F3EEE1",
"A. c #F9E8E7",
"S. c #F2EEEC",
"D. c #EEF1E7",
"F. c #EFF7EB",
"G. c #F5F2E3",
"H. c #FAF4E4",
"J. c #F7F9E4",
"K. c #FEFBE5",
"L. c #F5F2EB",
"P. c #FBF6EA",
"I. c #F7F9EC",
"U. c #FEFBEB",
"Y. c #E6E9F1",
"T. c #E9EEF1",
"R. c #F5F5F2",
"E. c #F8F7F0",
"W. c #F7F8F0",
"Q. c #FBFEF2",
"!. c #FFFDF1",
"~. c ivory",
"^. c #FFFFF1",
"/. c #FDFFF3",
"(. c #FFFFF3",
"). c #FFFFF2",
"_. c #FFFFF5",
"`. c #FFFFF7",
"'. c #FFFFF3",
"]. c #F4FAFC",
"[. c #FFFFFB",
"{. c #FEFEF9",
"}. c #FFFFFD",
"|. c #FFFFFE",
" X c white",
".X c #FFFFFC",
/* pixels */
"                                                                                                                                ",
"                                                                                                                                ",
"                                                                                                                                ",
"                                                                                                                                ",
"                                                                                                                                ",
"                                                                                                                                ",
"                                                                                                                                ",
"                                                                                                                                ",
"                                                                                                                                ",
"                                                                                                                                ",
"                                                                                                                                ",
"                                                                                                                                ",
"                                                      M.O.            =.B.                                                      ",
"                                                    ` ^. X          T ^.{.Q.                                                    ",
"                                                    m k.^.L.      ( >.s.U.^.S.Q.C.                                              ",
"                                                  v y.U.K. X&.  u } r.^.P.K.^.K. Xa.                                            ",
"                                        Y.m.        G Z. X{.    P %.k.^.P.P.K.P.P.^.                                            ",
"                                      L. X Xv          XN.        q 9 h._.U.P.P._.W.                                            ",
"                                Y Z , s._.U.{.  p n.  0             i } G...G.P.^. X                                            ",
"                                l y.P.Z.K. X@.  G  XV.              ` G J B h.K...C.                                            ",
"                          ^ S B n h.U.K. XR.  - P. Xc                 9.p   ) i.        b.                                      ",
"                        l <.1.G.u.H.K.L.=.      $.U.                          y       a U.].#.                                  ",
"                        G K ^.U.^.P.K.R.          *                                   4 k. X X X                                ",
"                        B :._.P.P.K.j.K.x.                                            1.^.^. XR                                 ",
"                        l 5.U.U.K.U. X X].                                          $.f.h.P. X    F.^.                          ",
"                          N y.^.^.p.r Y                                             3 2.6 . N.    {.i.                          ",
"                          & [ s.U.Z.                                                              , E.                          ",
"                          C [ U.K.^.                                                                                            ",
"                          ~ G 1.P.+.                                                        =  XS.                              ",
"                          w >.b e.@.                                                        R ^.{.-.                            ",
"                            | | $.                                                          X y.^. X                            ",
"                    ~ a M.                                                                z 7 { H. X                            ",
"                  o.l.K. Xp.                                                            C w.H.U.U._.                            ",
"                  Y U.^.P.P.M.                                E !                       | U.^.P.U.^.                            ",
"                    y.K.K.{. X                          s 1 j  X{.^.{.X.                4._.U.P.P.{.C.                          ",
"                  Q M l.k.) v.                        1.P.G.G.P.K.P.K.{.m.              8 P.^.P.P. Xv.                          ",
"                  f / W W                           p u.H.p.^.P.^.U.U.U.&.                a ) k.^.S.                            ",
"                                        ( _. X-.      1.P.Z.^.^.U.U.K._.      | -.          { U.U.{.                            ",
"                            ] Q.        i.U.K. X    o l.^.G.h.G.) :   U     2  X X{.      $.G z.U. X<                           ",
"                          +.}  Xt       G [ P.K.I.  % ) Q 9  .>       l ' 9 6 y.K.K.{.*.    S q.K. Xu                           ",
"                            h._.9.    5 ) t.P.U.U.{.                A L F 1.w.h.P.K.K. X*.    g N.J                             ",
"                        I i Z.K._.P.) :.P._.P.P.P.P.Z.C.0.          J n i. X^.U.P.P.P.K.U.                                      ",
"                        %.A.{.P.K.h.k F G._.P.P.U.U.^.^. Xf         a ,.1.^._.U.P.P.P.P.J.9.                                    ",
"                      $ ;.g.{.G.L.H. .i h ..P.^.P.U.^.U. X            I x { i.P.P.K.K.P.K._. X                                  ",
"                        Q | ( 8.J.L.P.-.W h G._.{ 1.{. XT.                :.k L.s.y.^.K.P.P.{.-.                                ",
"                        e | S G.K.H.G.{.6.j :.d.# O =.                    3 j t.P.1.s.K.P.P.U.D.                                ",
"                        Z h._.P.K.I.Z._.G.| S (                             5 q.{.U.k.^.^.^._.L.                                ",
"                        j h.^.P.^.P.| Z. X^                                 ) G h.U.P.y.P.s. X                                  ",
"                           .w.^.P.U.^.L.c.                                  g ..} 1.H D { Z                                     ",
"                          T K _.P.S N.$.                                      ^ 3 a   + s.:                                     ",
"                          U K 1.^.*        X#.                                              +.                                  ",
"                            l ) ^       Z {. X                                      -.     X X!                                 ",
"                                    d u.h.K.K. X                                T B K. X{._.{.;                                 ",
"                                    : P.{.P.^.                                p <.7.P.U.^._.*.                                  ",
"                                w w.s.L.P.^.^.D.                              < >.f.U.P.K. XQ                                   ",
"                                ( G ^.H...s.k.{.                                j 6 t._.^.{.s.                                  ",
"                              c V J.^.P.h.h.P.-.                                  a { i.1.I.8.                                  ",
"                            / L K.^.K.U.H.H. X                                      ) | @                                       ",
"                            _ 3.,.1.N Z.Z : u                                       W W                                         ",
"                              ' $.<                                                                                             ",
"                                                                                                                                ",
"                                                                                                                                ",
"                                                                                                                                ",
"                                                                                                                                ",
"                                                                                                                                ",
"                                                                                                                                ",
"                                                                                                                                ",
"                                                                                                                                ",
"                                                                                                                                ",
"                                                                                                                                ",
"                                                                                                                                ",
"                                                                                                                                ",
"                                                                                                                                ",
"                                                                                                                                ",
"                                                                                                                                "
};
