/* XPM */
static char *_81cf37b5e5b4b4e979af5e9e584ff23[] = {
/* columns rows colors chars-per-pixel */
"64 75 167 2 ",
"   c None",
".  c #8D8A8B",
"X  c #989C8D",
"o  c #928F99",
"O  c #9A9694",
"+  c #9FA49B",
"@  c #A6A09B",
"#  c #B2AC9C",
"$  c #9F9DA1",
"%  c #ABA5A4",
"&  c #ADACA1",
"*  c #A6A2AC",
"=  c #A8A5AC",
"-  c #ABABAC",
";  c #B2AEA4",
":  c #B4AFA8",
">  c #A5B1AC",
",  c #AEB3A8",
"<  c #B3B0A6",
"1  c #BFB3A4",
"2  c #B2B4AD",
"3  c #BBBAAB",
"4  c #A0A4B2",
"5  c #ABABB1",
"6  c #ACAEBB",
"7  c #ACB7B7",
"8  c #B3B3B4",
"9  c #BCB4B2",
"0  c #BCB9B4",
"q  c #B5BABD",
"w  c #BFBCBD",
"e  c #C0BEA7",
"r  c #C0BBAC",
"t  c #C1B7B0",
"y  c #C3BDB2",
"u  c #CABDB1",
"i  c #C6BCBE",
"p  c #BFC3B3",
"a  c #BDC0BE",
"s  c #C5C2AD",
"d  c #C4C2B4",
"f  c #CCC3B2",
"g  c #CDC9B5",
"h  c #C6C4BD",
"j  c #CBC3BD",
"k  c #CDCDBE",
"l  c #D6C7B5",
"z  c #D0CEB0",
"x  c #D4C6BB",
"c  c #D3CDBC",
"v  c #DAD1BE",
"b  c #DADBBB",
"n  c #E0CFBF",
"m  c #E1DDBE",
"M  c #AFB4C5",
"N  c #B1B3C0",
"B  c #BFBAC5",
"V  c #BABEC8",
"C  c #C3BDC1",
"Z  c #B6C1C1",
"A  c #C3C4C2",
"S  c #CBC5C2",
"D  c #CECBC4",
"F  c #C4C4CB",
"G  c #CBC5CA",
"H  c #CDCCCA",
"J  c #D2C2C2",
"K  c #D5CAC3",
"L  c #D8CFC4",
"P  c #D2CBC8",
"I  c #DACDCB",
"U  c #C7D1C5",
"Y  c #CED8CE",
"T  c #D6D0C0",
"R  c #DBD4C4",
"E  c #DEDAC6",
"W  c #D4D2CB",
"Q  c #DCD4C9",
"!  c #D6DACD",
"~  c #DFDFC8",
"^  c #D2CCD3",
"/  c #D0CBDB",
"(  c #D3D7D5",
")  c #DDD5D2",
"_  c #D6DBD2",
"`  c #D9D8D4",
"'  c #D6DCDA",
"]  c #DBDCDE",
"[  c #E0CCC2",
"{  c #E3D3C3",
"}  c #E7DBC6",
"|  c #E9DDC5",
" . c #E0D7C9",
".. c #E3DCCC",
"X. c #E9DCC9",
"o. c #E2DCD2",
"O. c #F2DDDC",
"+. c #D6E2DB",
"@. c #DFE3DD",
"#. c #E6E1CB",
"$. c #ECE9CE",
"%. c #E4E3D4",
"&. c #EAE5D4",
"*. c #EFE9D5",
"=. c #EEE7D8",
"-. c #ECE9DC",
";. c #F2ECD7",
":. c #F3ECDC",
">. c #F4F2DE",
",. c #F8F2DA",
"<. c #DDDEE2",
"1. c #DFE4E0",
"2. c #DFE8E1",
"3. c #E6E5E2",
"4. c #EDEAE3",
"5. c #EBE6EB",
"6. c #F2EDE5",
"7. c #E9F0E7",
"8. c #F6F3E3",
"9. c #FBF6E5",
"0. c #F6F9E7",
"q. c #FEFBE5",
"w. c #F5F1EB",
"e. c #FCF7EA",
"r. c #F7F8E9",
"t. c #FEF9EC",
"y. c #FFFAEC",
"u. c #FFFAED",
"i. c #FDFBEF",
"p. c #FFFBEE",
"a. c #FFFCEC",
"s. c #FFFDEC",
"d. c #FFFCED",
"f. c #FFFDED",
"g. c #FFFFEC",
"h. c #FFFEED",
"j. c #FFFDEE",
"k. c #FFFCEF",
"l. c #FFFDEF",
"z. c #FFFFEE",
"x. c #FFFEEF",
"c. c #FFFBEA",
"v. c #F1F2F4",
"b. c #FDFCF1",
"n. c #FFFEF0",
"m. c ivory",
"M. c #FFFFF1",
"N. c #FFFFF2",
"B. c #FFFFF3",
"V. c #F9FAF5",
"C. c #F8FDF5",
"Z. c #FFFFF5",
"A. c #FDFEF6",
"S. c #FFFFF6",
"D. c #FFFFF7",
"F. c #FFFFF3",
"G. c #FEFCF8",
"H. c #FEFFF8",
"J. c #FFFFF8",
"K. c #FFFFF9",
"L. c #FFFFFA",
"P. c #FFFFFB",
"I. c #FFFFFC",
"U. c #FFFFFD",
"Y. c #FFFFFE",
"T. c white",
"R. c #FFFFFD",
/* pixels */
"                                                                                                                                ",
"                                                                                                                                ",
"                                                                                                                                ",
"                                                                                                                                ",
"                                                                                                                                ",
"                                                                                                                                ",
"                                                                                                                                ",
"                                                                                                                                ",
"                                                                                                                                ",
"                                                                                                                                ",
"                                                                                                                                ",
"                                                                                                                                ",
"                                                                                                                                ",
"                                                                                                                                ",
"                                                                                                                                ",
"                                                                                                                                ",
"                                                                                                                                ",
"                                                                                                                                ",
"                                                                                                                                ",
"                                                                                                                                ",
"                                                                                                                                ",
"                                                                                                                                ",
"                                                                                                                                ",
"                                                                                                                                ",
"                                                                                                                                ",
"                                                                                                                                ",
"                                                                                                                                ",
"                                                                                                                                ",
"                                                                                                                                ",
"                                                                                                                                ",
"                                                                                                                                ",
"                                                                                                                                ",
"                                                                                                                                ",
"                                                                  _ %.U                                                         ",
"                                                          % G 9 4.T.B.B.T.6                                                     ",
"                                                        k 9.c.8.9.a.c.q.q.H.                                                    ",
"                                              H.        c 8.-.-.a.a.B.a.B.r.                                                    ",
"                                          5 S.H.T.      0 9.i.8.H.e.e.9.a.@.    N >.7.                                          ",
"                                          D ;.a.S.1.    E ,.c.*.9.Q @     6     H S.H.C.                                        ",
"                                          t f -.a.c.S.  O i % : H         K I 3 s :.c.q.H.t.                                    ",
"                                        J x &.9.i.c.H.`                 b l Q =.=.9.c.q.q.T.<.                                  ",
"                                      S { 4.T.a.c.e.c.i.H.T.Y         > m u w.T.B.c.c.c.c.q.q.                                  ",
"                                      y { ..c.a.c.i.a.c.a.S.V.          H Q #.B.B.c.c.c.c.c.q.2.                                ",
"                                  +.    C f s -.S.i.9.B.B.T.'             7 e R o.e.8.c.c.c.a.H.T.                              ",
"                              o o.B.B.      d  .B.&.r 8.S.T.                h R j t.%.&.B.c.c.9.S.]                             ",
"                          $ :.&.:.c.T.W     j X.| d   = 4                     = u *.a...:.c.c.c.a.3.                            ",
"                          G &.T.c.c.H.!       p A                               u $.T.B.9.a.B.B.T.(                             ",
"                          % *.0.a.a.T.d                                       S R c ;.9.:...6.o.T.                              ",
"                            G v c.a.8.H.T.                                      F ~ E T 1 f ..;                                 ",
"                            B x 8.H.k 2 ]                                           $     . )                                   ",
"                              R c 9.F       5.T.                                              ^ 3.                              ",
"                                W G     X # B.S.v.                                    + T.0 & T.T.q                             ",
"                                        %.e.9.c.6.                                8 P R 9.T.H.a.c.                              ",
"                                    , % o.H.c.B.4.                                k [ 6.a.a.a.T.w                               ",
"                                  M R &.b.:.a.c.T.Z                               8 } &.9.a.c.T.w                               ",
"                                  F g :.B...&.*.S.'                                 9 < &.B.i.T.4.                              ",
"                                d z 9.B.a.9.>.q.B.                                    D R ..D -.a                               ",
"                              / n ;.B.9.9.c...S.A                                     8 L H                                     ",
"                              * O.I o.; D P   5                                                                                 ",
"                                - ( V                                                                                           ",
"                                                                                                                                ",
"                                                                                                                                ",
"                                                                                                                                ",
"                                                                                                                                ",
"                                                                                                                                ",
"                                                                                                                                ",
"                                                                                                                                ",
"                                                                                                                                ",
"                                                                                                                                ",
"                                                                                                                                ",
"                                                                                                                                ",
"                                                                                                                                ",
"                                                                                                                                ",
"                                                                                                                                ",
"                                                                                                                                "
};
