/* XPM */
static char *_d2bef4a3b3c412bb697c12d3ddc0194[] = {
/* columns rows colors chars-per-pixel */
"64 64 186 2 ",
"   c None",
".  c #000003",
"X  c #00000C",
"o  c #000513",
"O  c #000A16",
"+  c #000C1B",
"@  c #000418",
"#  c #1E0A13",
"$  c #02121D",
"%  c #0C141D",
"&  c #320000",
"*  c #2E0D12",
"=  c #2C1419",
"-  c #000D25",
";  c #011324",
":  c #0C1924",
">  c #011B2A",
",  c #0A1926",
"<  c #121C26",
"1  c #111E2A",
"2  c #041F32",
"3  c #04202D",
"4  c #0D212D",
"5  c #13212B",
"6  c #1A252E",
"7  c #032134",
"8  c #05243A",
"9  c #0C263A",
"0  c #0C293D",
"q  c #112635",
"w  c #1C2A35",
"e  c #122C3D",
"r  c #1D2E3B",
"t  c #162735",
"y  c #1E313A",
"u  c #3F252E",
"i  c #202E3D",
"p  c #372933",
"a  c #29343D",
"s  c #293234",
"d  c #4B0304",
"f  c #460401",
"g  c #560A08",
"h  c #500506",
"j  c #4A0E12",
"k  c #5C0F12",
"l  c #5B1111",
"z  c #620807",
"x  c #730C0E",
"c  c #620F11",
"v  c #661C1A",
"b  c #681314",
"n  c #731B1B",
"m  c #751716",
"M  c #43242B",
"N  c #572D35",
"B  c #702B2B",
"V  c #7B2828",
"C  c #612D31",
"Z  c #7B2F32",
"A  c #6F3231",
"S  c #7D3536",
"D  c #713938",
"F  c #0D2D43",
"G  c #142E41",
"H  c #0B3549",
"J  c #153343",
"K  c #1C3545",
"L  c #14344B",
"P  c #1E3749",
"I  c #143B4F",
"U  c #1C394D",
"Y  c #1B3C52",
"T  c #153C51",
"R  c #233543",
"E  c #213749",
"W  c #243C4D",
"Q  c #2B3B4B",
"!  c #2E3B42",
"~  c #363745",
"^  c #243F51",
"/  c #283F50",
"(  c #413A47",
")  c #7F3D40",
"_  c #164053",
"`  c #1A4154",
"'  c #19445A",
"]  c #27404F",
"[  c #3E4648",
"{  c #264154",
"}  c #2A4355",
"|  c #27455A",
" . c #2A465A",
".. c #2A495E",
"X. c #314554",
"o. c #354A55",
"O. c #314659",
"+. c #334D5D",
"@. c #3A4E5C",
"#. c #3E4A51",
"$. c #1E4A60",
"%. c #2B4C62",
"&. c #374F61",
"*. c #2E5368",
"=. c #3C5264",
"-. c #375464",
";. c #4B545C",
":. c #43525C",
">. c #464C5C",
",. c #7B484A",
"<. c #415665",
"1. c #455864",
"2. c #475968",
"3. c #4A5F68",
"4. c #575E62",
"5. c #4B626C",
"6. c #57666F",
"7. c #4C6372",
"8. c #5A6C7B",
"9. c #586A75",
"0. c #597079",
"q. c #656E79",
"w. c #69757B",
"e. c #797B7F",
"r. c #92140F",
"t. c #831713",
"y. c #871A17",
"u. c #9D251F",
"i. c #94423E",
"p. c #97494B",
"a. c #874A4B",
"s. c #A56868",
"d. c #BE7A76",
"f. c #AAA639",
"g. c #E4BF19",
"h. c #CFBB3C",
"j. c #9C9949",
"k. c #FFFF41",
"l. c #5D7889",
"z. c #667882",
"x. c #7D888E",
"c. c #788489",
"v. c #798690",
"b. c #5186A4",
"n. c #858A8B",
"m. c #878A8D",
"M. c #8D9293",
"N. c #8F9898",
"B. c #94979D",
"V. c #9B9898",
"C. c #A7A39F",
"Z. c #8C99A3",
"A. c #9BA5A7",
"S. c #A9A5A5",
"D. c #A8A9A7",
"F. c #B8B1A9",
"G. c #B8BAB7",
"H. c #C0BEAD",
"J. c #C5BFBA",
"K. c #CDC7BC",
"L. c #D0C6BC",
"P. c #BFB6C4",
"I. c #B6C7CF",
"U. c #C5C8C7",
"Y. c #D6CCC1",
"T. c #DBD5CD",
"R. c #CDD3D5",
"E. c #D2D8D7",
"W. c #E6DCCE",
"Q. c #E4DED1",
"!. c #EBE1CF",
"~. c #EBE3D3",
"^. c #ECE5DA",
"/. c #F4E4D5",
"(. c #F4ECDD",
"). c #FCF3DD",
"_. c #EDEEEA",
"`. c #F3EFE2",
"'. c #F7F1E5",
"]. c #FCF8E4",
"[. c #FFFDEB",
"{. c #FAF3E8",
"}. c #EBEBF0",
"|. c #FFFFF4",
" X c #FFFFFD",
".X c #F7F8F5",
/* pixels */
"                                                                                                                                ",
"                                                                                                                                ",
"                                                                                                                                ",
"                                                                                                                                ",
"                                                                                                                                ",
"                                                                                                                                ",
"                                                                                                                                ",
"                                                                                                                                ",
"                                                                                                                                ",
"                                                          ) f       z S                                                         ",
"                                                            & a.  s.d                                                           ",
"                                                            B k   b p.                                                          ",
"                                                              l   m                                                             ",
"                                                              A S p.                                                            ",
"                                                                c                                                               ",
"                                                                v                                                               ",
"                                                                i.                                                              ",
"                                                              &.>.-.                                                            ",
"                                                          2.F Y ' L F =.                                                        ",
"                                                        l.> | | W W ^ 7 0.                                                      ",
"                                                        X.H _ _ _ _ ` J X.                          +.y                         ",
"                                                        Z k j C N C j c V                       [ e b.0 s                       ",
"                                                        = D d.g g h d.,.*                   ! : . O { 4 %                       ",
"                                                        > J 5.> J 7 3.K $             ! 1 X . $ :.  < X                         ",
"                                                        @.; + { %.*.; ; o.      a 1 O X o w                                     ",
"                                                        O.W ] W { %.%.%.O.a : + O X + a                                         ",
"                                                      O P { W W { .... .K $ + o : #.                                            ",
"                                                      < W { E W W { W ^  .$ < ;.                                                ",
"                                                      % R ..K P W ^ { | { 6.                                                    ",
"                                                    1 : 6 } W W ......| Y                                                       ",
"                                                    1 1 < W ^ W  .....| Y                                                       ",
"                                                    $ 5 : R } ^  .......I 9.                                                    ",
"                                                      : : w ` I I I I _ H 7.                                                    ",
"                                                      $ , 5 p M u u p p 1 +.                                                    ",
"                                                    s.# > 3 v r.t.t.t.y.x B                                                     ",
"                                                    u.z 1 3 M y.m n n n n y.                                                    ",
"                                                    d N 6 ; 6 ( ~ ~ Q Q Q R { &.<.                                              ",
"                                                  Q J $.r % 4 _ ' _ Y Y Y ` U Y Y L U O.                                        ",
"                                              @.9 J { ^ W < : R { W W W W W W ^ { ..%.Y 0 @.                                    ",
"                                            U L ^ W W W } w $ w } W W W W W W W W W | ....8 7.                                  ",
"                                          9 K } W W W W { R % 5 G G K W W W W W W W W { ....9                                   ",
"                                        0 ^ { W W W W W W G O 5 @.E P ^ W W W W W W W W { %.F 3.                                ",
"                                      G Y ..W W W W W P 9 =.r 6 |..X2.- e { W W W W W W W | L 5.                                ",
"                                    =.F ..W W W W K G - z..X|.n.4.B.w.Q o.2 P W W W W W W { 0 7.                                ",
"                                    8 %.{ W W / 9 P } G.|.[.[.Y.n.U.].[..X;., J ^ W W W W G e                                   ",
"                                  X.I ..W W W 0 v.Z.x. X|.[.~.L.I. X X X X'.    7 { W G 9 9                                     ",
"                                  8 %.{ W W W 8 <.A._. X].Q.W.M.q D.(.~. X].    6.; q 2.8.                                      ",
"                                <.L ..W W W 9 0.c.G. X(.K.    i <     V.'.|./.V.q.#.                                            ",
"                                K  .{ W W K 8 |.|.o.H.V.                ^.[./.V.n.                                              ",
"                                7.> e e J W P M.x.9.                    M.^.e.1. X                                              ",
"                                    2.8.    r . 9. X XE.      j.g.h.      U.A.x.V.                                              ",
"                                            q + A. X[. X      f.k.h.    _. X X~.r                                               ",
"                                            > @ N.{.[.|.'.P.             X[. XD.2                                               ",
"                                            q.:.    ^.|.|.).            `.[.(.w.7                                               ",
"                                                    S.|.!.S.  E.R.R.    F.T.                                                    ",
"                                                      J.C.  |. X X|.    }.G.                                                    ",
"                                                          B.|.).[.).G.   XC.                                                    ",
"                                                            S.  F.T.                                                            ",
"                                                                                                                                ",
"                                                                                                                                ",
"                                                                                                                                ",
"                                                                                                                                ",
"                                                                                                                                ",
"                                                                                                                                "
};
