/* XPM */
static char *_f25043b01a24401fa419b0a87dfa4f5aasyxBBG2PKgOKpq[] = {
/* columns rows colors chars-per-pixel */
"64 64 169 2 ",
"   c None",
".  c #000002",
"X  c #0E0000",
"o  c #00010B",
"O  c #180007",
"+  c #000411",
"@  c #010A14",
"#  c #000C19",
"$  c #05121D",
"%  c #0A151D",
"&  c #3A0000",
"*  c #2C131C",
"=  c #011524",
"-  c #0A1623",
";  c #041927",
":  c #0D1A24",
">  c #001629",
",  c #021A2B",
"<  c #0A1F2D",
"1  c #111B24",
"2  c #131F2A",
"3  c #1A1D28",
"4  c #051F31",
"5  c #0A212B",
"6  c #13222B",
"7  c #1E262D",
"8  c #062235",
"9  c #0A2234",
"0  c #00243A",
"q  c #0A2539",
"w  c #042A3D",
"e  c #0D2A3D",
"r  c #152633",
"t  c #122837",
"y  c #1C2931",
"u  c #142B3C",
"i  c #1A2D3D",
"p  c #1B303F",
"a  c #232C35",
"s  c #2B2B37",
"d  c #242D3A",
"f  c #2E2E3D",
"g  c #253139",
"h  c #32333F",
"j  c #430001",
"k  c #4B0000",
"l  c #570205",
"z  c #541317",
"x  c #5B171A",
"c  c #5D1A1D",
"v  c #600000",
"b  c #6D0000",
"n  c #630809",
"m  c #6E0A0A",
"M  c #790C07",
"N  c #750A09",
"B  c #66100F",
"V  c #6D0E10",
"C  c #611115",
"Z  c #6E1917",
"A  c #621D1D",
"S  c #6C1C1C",
"D  c #7D1513",
"F  c #7B1917",
"G  c #741B1A",
"H  c #7A1A1A",
"J  c #561C23",
"K  c #5E1D25",
"L  c #44262F",
"P  c #4D242C",
"I  c #47292F",
"U  c #5C2227",
"Y  c #532429",
"T  c #452931",
"R  c #6C2424",
"E  c #6C2B2C",
"W  c #752122",
"Q  c #7B2325",
"!  c #672C31",
"~  c #7B3234",
"^  c #0D2D42",
"/  c #132C40",
"(  c #182F42",
")  c #0D3345",
"_  c #0F3248",
"`  c #0A384C",
"'  c #143144",
"]  c #1B3445",
"[  c #16364C",
"{  c #1D3749",
"}  c #17394F",
"|  c #1A394E",
" . c #153651",
".. c #173B52",
"X. c #1C3E51",
"o. c #213544",
"O. c #2B3441",
"+. c #2B3A44",
"@. c #203748",
"#. c #243C4D",
"$. c #2B3E4C",
"%. c #313D45",
"&. c #333949",
"*. c #253F51",
"=. c #174154",
"-. c #1A4155",
";. c #1D4259",
":. c #21414C",
">. c #2A444D",
",. c #3B464D",
"<. c #3D494E",
"1. c #264153",
"2. c #294253",
"3. c #25455A",
"4. c #29475B",
"5. c #20495F",
"6. c #2A495E",
"7. c #324552",
"8. c #3B4650",
"9. c #354C55",
"0. c #3D4B56",
"q. c #364C5B",
"w. c #3A4D5B",
"e. c #3D505C",
"r. c #2B4C62",
"t. c #2D5166",
"y. c #2C536C",
"u. c #345461",
"i. c #3E5769",
"p. c #31586F",
"a. c #34657E",
"s. c #444C53",
"d. c #4B545A",
"f. c #4C595F",
"g. c #435562",
"h. c #475867",
"j. c #4C5D6A",
"k. c #525C64",
"l. c #585E64",
"z. c #495E71",
"x. c #4E626E",
"c. c #5C636B",
"v. c #4B6372",
"b. c #516875",
"n. c #5C6873",
"m. c #576B7D",
"M. c #5C6C7B",
"N. c #656E74",
"B. c #716E71",
"V. c #62777E",
"C. c #821714",
"Z. c #811916",
"A. c #801818",
"S. c #893334",
"D. c #833A3C",
"F. c #854646",
"G. c #8F4C4C",
"H. c #974947",
"J. c #934C4C",
"K. c #8F514E",
"L. c #924C51",
"P. c #955E5D",
"I. c #9E6467",
"U. c #A36265",
"Y. c #AD7C7B",
"T. c #B37A77",
"R. c #657781",
"E. c #667E8D",
"W. c #717C85",
/* pixels */
"                                                                                                                                ",
"                                                                                                                                ",
"                                                                                                                                ",
"                                                                                                                                ",
"                                                                                                                                ",
"                                                                                                                                ",
"                                                                                                                                ",
"                                                                                                                                ",
"                                                                                                                                ",
"                                                                                                                                ",
"                                        d.$                                                                                     ",
"                                      l., = 1                 x.v.m.x.                                                          ",
"                                      0.a.r.d               e ..} ' ^ 1.                                                        ",
"                                        q.o ,.            ] ' 4.*.#.*.0 u.                                                      ",
"                                          1 o             q -.=.=.-.-.} '                                                       ",
"                                            o $         I.n z J ! ! c C W S.Z R                                                 ",
"                                            s.. ,.      B.X T.G.j j K.Y.O     B G                                               ",
"                                              % .       V.. 9.#.w ) :.>.#       k S.                                            ",
"                                              l.. %       8 = u 6.p.} ; u       A ~ Q m V J.                                    ",
"                                                1 o a     u *.1.*.6.t.;.1.      P.k P.L.G.                                      ",
"                                                  o +     E.8 ] 4.r.} 8           E & R                                         ",
"                                                  a o $       9.u @.j.                R F.                                      ",
"                                                    o @ +.    g # % <.                                                          ",
"                                                    O.+ t ;.< @ 6 : # 4 q                                                       ",
"                                                      o #.r.#.r : : i r. .-                                                     ",
"                                                      d.^ 6.*.#.#.#.4.r.t.# 3                                                   ",
"                                                        X.4.#.#.4.r.6.4.r.] . s.                                                ",
"                                                        y.3.#.#.1.r.4.4.t.i @ .                                                 ",
"                                                      2.r.3.#.#.2.r.r.6.4.i.7 . o                                               ",
"                                                      m._ 3.....-.;.-.3.} v.  d . $                                             ",
"                                                      t.^ #.O.f f s d p e )     2 . 7                                           ",
"                                                      P K S Z G G G G S x P       $ . ,.                                        ",
"                                                      b D F F G F G F H Z.M         o . N.                                      ",
"                                                    D.v F A.D D D D D D C.b U.        @ .                                       ",
"                                                    N F R U Y P I T L P U l H.          . o                                     ",
"                                                    * &.#.X.-.-.-.-.=.-.5.{ h             @ o                                   ",
"                                                  ^ ` -.X.#.#.#.#.#.#.#.4.y.w b.            = y.R.                              ",
"                                                w.4 2.#.#.#.#.#.#.#.#.#.1.r.4.,             9 ..O.                              ",
"                                                > #.#.#.#.#.#.#.#.#.#.#.#.4.r.^ 7.          % +                                 ",
"                                              ] u #.#.#.#.#.#.#.#.#.#.#.#.1.6.6.8                                               ",
"                                            M., *.#.#.#.#.#.#.] i #.#.#.#.#.3.r.^ h.                                            ",
"                                            ] ] #.#.#.#.#.#.#.+.g ] *.#.#.#.*.6.3.{                                             ",
"                                          M.8 #.#.#.#.#.#.#.e k.c.4 2.#.#.#.#.*.1.e                                             ",
"                                          #.' #.#.#.#.#.#.2.,     ; 1.#.#.#.#.#.1.' x.                                          ",
"                                          ] #.#.#.#.#.#.#.2.;     r { #.#.#.#.#.2.[ g.                                          ",
"                                          ' #.#.#.#.#.#.#.u d     k., 2.#.#.#.#.#.e e.                                          ",
"                                          2.9 #.#.#.#.#.2.=         5 { #.#.#.#.#.,                                             ",
"                                            9 ] *.#.#.2.8 +.        n.> #.#.2.#.u w.                                            ",
"                                            $.p *.#.( 8 i             7., ] 2.2.,                                               ",
"                                            y < @.i ] w.                g.< p o.# f.                                            ",
"                                            2 $ $ :                       c.o : @ 0.                                            ",
"                                            - : o c.                        1 $ # %.                                            ",
"                                            $ # 1                             o $ g                                             ",
"                                            @ o N.                            a o 6                                             ",
"                                          %.o 6                               W.. %                                             ",
"                                      8.% # # u                               g.# $ @ y                                         ",
"                                    t + # < #.                                  g.i ; + = 2.                                    ",
"                                  7./ q.z.                                          m.g.$.q                                     ",
"                                                                                                                                ",
"                                                                                                                                ",
"                                                                                                                                ",
"                                                                                                                                ",
"                                                                                                                                ",
"                                                                                                                                "
};
