/* XPM */
static char *_4a00d43850f44afb31dc8639b5775be[] = {
/* columns rows colors chars-per-pixel */
"64 64 205 2 ",
"   c None",
".  c #00040C",
"X  c #050003",
"o  c #000512",
"O  c #000A15",
"+  c #010C19",
"@  c #00001B",
"#  c #04121D",
"$  c #3A0000",
"%  c #2A1219",
"&  c #000F28",
"*  c #0D1924",
"=  c #091928",
"-  c #181F28",
";  c #031931",
":  c #0D212C",
">  c #18222A",
",  c #01233D",
"<  c #0F293C",
"1  c #072639",
"2  c #142533",
"3  c #1B2A34",
"4  c #152C3E",
"5  c #182B3C",
"6  c #0F323F",
"7  c #232A31",
"8  c #2E373F",
"9  c #222A2B",
"0  c #430102",
"q  c #4E0000",
"w  c #440608",
"e  c #580000",
"r  c #4E151E",
"t  c #591217",
"y  c #650305",
"u  c #710E0E",
"i  c #631416",
"p  c #6F1113",
"a  c #731615",
"s  c #7B1E21",
"d  c #43373B",
"f  c #682628",
"g  c #6F3030",
"h  c #763030",
"j  c #0D2E42",
"k  c #092440",
"l  c #142E42",
"z  c #1A3545",
"x  c #13354A",
"c  c #18374A",
"v  c #1C3D52",
"b  c #233C4D",
"n  c #2B3B47",
"m  c #233E52",
"M  c #263F58",
"N  c #1B4053",
"B  c #1E445A",
"V  c #28404F",
"C  c #3B464E",
"Z  c #254153",
"A  c #294456",
"S  c #2B485B",
"D  c #344B5E",
"F  c #364856",
"G  c #2C4D62",
"H  c #354D63",
"J  c #2F5167",
"K  c #345263",
"L  c #564951",
"P  c #4A545C",
"I  c #51575B",
"U  c #7E4241",
"Y  c #475A68",
"T  c #535C68",
"R  c #4A5D70",
"E  c #576269",
"W  c #4D6174",
"Q  c #576875",
"!  c #5C737C",
"~  c #606F7E",
"^  c #65777D",
"/  c #873939",
"(  c #91524B",
")  c #8A4F50",
"_  c #915151",
"`  c #996866",
"'  c #937879",
"]  c #AC7573",
"[  c #AE807E",
"{  c #6F7C84",
"}  c #76828A",
"|  c #758190",
" . c #6C8492",
".. c #568BA8",
"X. c #7E8BA3",
"o. c #8E858E",
"O. c #90928E",
"+. c #868D95",
"@. c #979A9F",
"#. c #999B9B",
"$. c #AF8C85",
"%. c #A7978E",
"&. c #A69F9F",
"*. c #A5A59E",
"=. c #999AA6",
"-. c #8E9AA3",
";. c #A8A9A7",
":. c #B3B1AC",
">. c #BAB6AA",
",. c #BCB9A9",
"<. c #AAACB3",
"1. c #A4A7B3",
"2. c #ADB3B3",
"3. c #B4B4B4",
"4. c #BDBCB5",
"5. c #BEBDBB",
"6. c #B6B5B4",
"7. c #B3AEAA",
"8. c #C3BBAD",
"9. c #C0B5AF",
"0. c #C3BCB3",
"q. c #CABEB4",
"w. c #C4BDBC",
"e. c #C2B7B4",
"r. c #BCC4BF",
"t. c #C3C1B4",
"y. c #CBC3B5",
"u. c #C3C2BB",
"i. c #CBC5BB",
"p. c #CDCABD",
"a. c #CDC9B5",
"s. c #D1C4B6",
"d. c #D2CBBC",
"f. c #D7C8B8",
"g. c #DBD4BE",
"h. c #B7BCC3",
"j. c #ACB6C3",
"k. c #C1BBC3",
"l. c #BDC4C3",
"z. c #BBC0D0",
"x. c #C3C2C2",
"c. c #CBC5C4",
"v. c #CDCAC3",
"b. c #C5CACB",
"n. c #C9CACA",
"m. c #D3CBC2",
"M. c #DCCCC4",
"N. c #D4CCCA",
"B. c #D7C6C3",
"V. c #CBD3CC",
"C. c #D5D3C4",
"Z. c #DBD4C5",
"A. c #D5D2CC",
"S. c #DDD6CC",
"D. c #DDD9CC",
"F. c #D8D9C8",
"G. c #CFD5D4",
"H. c #D5D5D3",
"J. c #DFD5D3",
"K. c #DCD9D3",
"L. c #D5DADC",
"P. c #DCDDDB",
"I. c #CDCDD7",
"U. c #E1DBC6",
"Y. c #E3D5CC",
"T. c #E4DCCC",
"R. c #E7D9C9",
"E. c #E4DDD3",
"W. c #EADCD2",
"Q. c #E5DED8",
"!. c #DAE1D5",
"~. c #E4E2CE",
"^. c #EDE6CF",
"/. c #F2E7CD",
"(. c #E5E2D4",
"). c #EBE4D4",
"_. c #E4E3DB",
"`. c #EAE5DB",
"'. c #EDEADC",
"]. c #EAE8DA",
"[. c #F0E9D6",
"{. c #F3EDDC",
"}. c #F6E7D2",
"|. c #F5F2DD",
" X c #FBF2DD",
".X c #E9F9D5",
"XX c #D2D4E0",
"oX c #E5E6E7",
"OX c #EAE6E1",
"+X c #ECECE3",
"@X c #EBECE8",
"#X c #F3EDE2",
"$X c #F2ECEA",
"%X c #ECF2E6",
"&X c #F5F1E4",
"*X c #FBF5E4",
"=X c #FEFAE6",
"-X c #F5F3E9",
";X c #FBF6EB",
":X c #FEFBEB",
">X c #F4FAE8",
",X c #F5F9F4",
"<X c #FFFEF3",
"1X c #FFFFFD",
"2X c #F3FAF6",
/* pixels */
"                                                                                                                                ",
"                                                                                                                                ",
"                                                                                                                                ",
"                                                                                                                                ",
"                                                                                                                                ",
"                                                                                                                                ",
"                                                                                                                                ",
"                                                                                                                                ",
"                                                                                                                                ",
"                                                          q f     ] q                                                           ",
"                                                          ) $     a y                                                           ",
"                                                            0     e                                                             ",
"                                                            U h   s                                                             ",
"                                                              g / ]                                                             ",
"                                                              U h                                                               ",
"                                                              ( /                                                               ",
"                                                              ` `                                                               ",
"                                                            S D D G                                                             ",
"                                                          < x B B x 1 !                                                         ",
"                                                        x j S m b b v ,                                                         ",
"                                                        2 v v N N N b 2 T                           K :                         ",
"                                                        p i i f f f i u /                       9 1 ..l >                       ",
"                                                        X ` ) $ w f [ % d                 C 2 . . # 4 # -                       ",
"                                                        O b c 1 x 6 n O F           C 2 O X o 3     7 O                         ",
"                                                        4 = 4 S J S ; < W     8 > # . . * C                                     ",
"                                                      n Z Z V b A G J G n * O + o O 3 P                                         ",
"                                                      2 A b V z x v Z A 5 + O # n                                               ",
"                                                    * 3 Z < < l K A 1 , z * C                                                   ",
"                                                    * o b S 4 2.<X'.V. .v                                                       ",
"                                                    + I i.`.m.;X1X<X1X1Xh.                                                      ",
"                                                    I =X1X:X:X:X:X:X=X:X<X                                                      ",
"                                          _.1XXX    7 t.:X`.#X:X<X<X<X1XG.                                                      ",
"                                        x.1X<X1XI.  5 *.<X:X#X<X-X%XV.+X}     L.<X1Xj.                                          ",
"                                        v.T.:X<X+X  +.*X:X*X'.2X%.U r L } @.#.F.=X<X<X_.                                        ",
"                                        0.i.'.:X<X1X] d E L ' $.a y s 8.).Y.p.d.*X:X=X1X1X                                      ",
"                                    1.Y.Y.;X:X:X;X1XM.'  .# 0 y i t %..Xs.'.*X;X:X:X:X=X<XoX                                    ",
"                                    Y.f.+X1X:X:X:X=X<X1X1Xl.: b Z , ^ }.f.;X1X:X:X:X:X:X:X=X                                    ",
"                                    #.Y.U.).=X:X:X<X:X:X1XH.= v j j R =.p.U.*X:X;X:X:X:X:X=X,Xz.                                ",
"                              b.>X      i.,.).1X&X{.<X1X1Xb.- < l ;.1X1.! ,.s.D.:X`.:X:X:X:X<X1X                                ",
"                          k.3.].<X1X      d.Y. X8.O._.+X-X1X;.2 A.:X<X<XP.v.0.m.;X(.(.:X:X:X*X1Xb.                              ",
"                        3.{.*X*X:X1X(.  , <.g.8.v.R D Y ].<X8 o } Z.<X<X<X1Xb.7.|.<X).&X:X:X:X<XL.                              ",
"                        c.).1X:X:X1X2.; v 3.C.K.1X| } b.Q * . F H 2.(.d.*X<XK.8.[.1X<X*X;X<X<X1X                                ",
"                        o.).).:X:X1XV.<.v.^.:X1Xl.D x.1XM D +X|.{.{.(.H.c.z } E.a.Z. X/.Z.).4.h.                                ",
"                          k.f.:X<X(.,X1X:X:X<XH.; 1 l.<XS.#X{.).:X*X:X1X,XF @ h.(.Z.;.E q.=XT                                   ",
"                          h.d.).<X5.@.#X<X$X1Xr.1 &.<X:X X*X].<X<X:X:X=X1XoX@.(.:X$XM { r.T ~                                   ",
"                            i.Z.;XX.m ,.d.$X1X-.m M.).{.K.K.(.E.'.-X&X-X=X<X1X4.n b W 1X+.F 1X1X                                ",
"                              <.W , Y i.y.=X1XG.c 9.Z.p.q.8.>.0.;X<X:X;X-X=X<XF.| Q d.1X_.@X1X1X                                ",
"                                & x ^ ].<X:X<XH.{ 0.m.i.s.W.{.&X:X&X:X:X+X&X:X>XE.W.W.*X1X<X<XV.                                ",
"                              H Y C.v.'.<X:X:X-XQ.f.0.0.T.<X<X:XC.(.:X:X{.].:X_.e.f.,X<X:X=X1X                                  ",
"                                1.T.].1XE.&X X:X%X(.v.0.~.1X{.d.].:X:X*X:X:X:X-XA.0.d.*X<X:X1Xw.                                ",
"                                u.U.:X:X).[.[.;X@XA.c.i.d.*X|.'.1X=X*X=X*X`.*X@X&X'.4.(.|.&X1XoX                                ",
"                            <.g./.<X:X:X<X{.<X_.i.s.d.i.d.{.<X:X{.:X:X=Xn.K.;X$X-X+XN.y.A.=.3.                                  ",
"                            I.Y.E.{.C.E.`.i.`.v.0.i.8.Z.<X:X:XD.T.<X<X+X0.[.1X<X;XD.~.{.<.                                      ",
"                              J.N.x.6.0.u.K.S.i.A.,XK.S.<X<X*X8.).<XOXD.8.).<X:X<Xl.3.*.                                        ",
"                                    w.m.e.m.D.p.'.<X<Xv.m.:X*Xy.p.v.q.S.).;X<X<X<X                                              ",
"                                    e.J.i.).1X:X:X:X:X|.K.#X<X{.4.t.*X<X-X&X:X<X*X;XL.                                          ",
"                                      :.u.).*X:X:X=X=X<X,X+X:X<XP.i.=X1X;X(.~.~.*X1X1X                                          ",
"                                          N.w.K.1X:X|.Q.OX;X<X:XE.0.g.|.*X{.=X|.&X1XL.                                          ",
"                                            4.U.].Q.c.;.0.+X`._.A.>.4.4.:.q.W._.<X                                              ",
"                                            #.C.>.y.u.t.d.;X`.+X1XH.A.`.-XQ.M.u.                                                ",
"                                              D.OXS.v.c.M.=X<X:X:X,X<X+XH.;X{.;.                                                ",
"                                              D.{.<XH.1.S.a.`.1X=X;X1X!.                                                        ",
"                                                  ;.    ;.N.Z.{.D.(.&X                                                          ",
"                                                            6.:.6.5.                                                            "
};
