/* XPM */
static char *_d1066e75f4947ad97994002dad01dbb[] = {
/* columns rows colors chars-per-pixel */
"64 75 202 2 ",
"   c None",
".  c #9A948D",
"X  c #8E8C99",
"o  c #928A96",
"O  c #959393",
"+  c #999194",
"@  c #9D9E93",
"#  c #929F9D",
"$  c #989B99",
"%  c #A6A598",
"&  c #989BAA",
"*  c #9C9BA4",
"=  c #A59FA1",
"-  c #9DA1A5",
";  c #9FA5AB",
":  c #94A4A3",
">  c #ABA5A4",
",  c #ABADA1",
"<  c #A6A4AA",
"1  c #AEA6AD",
"2  c #AAAAAE",
"3  c #B1ADA8",
"4  c #B8ADAF",
"5  c #B2ABA5",
"6  c #ACB3AE",
"7  c #BCB7A7",
"8  c #BFBAA7",
"9  c #B7B5A8",
"0  c #BCB6AB",
"q  c #B2BAAE",
"w  c #BEBCAC",
"e  c #A7ADB6",
"r  c #ACADBD",
"t  c #B0ADB1",
"y  c #ABB7B8",
"u  c #B6B5B2",
"i  c #BEB5B2",
"p  c #B6BBB2",
"a  c #BDBCB3",
"s  c #B6B3BA",
"d  c #B8B5BA",
"f  c #B4B9BF",
"g  c #BDBCBA",
"h  c #C4B3A7",
"j  c #C8BFA4",
"k  c #C5B6AA",
"l  c #C3BDAC",
"z  c #C4BCB4",
"x  c #C9BEB2",
"c  c #C4BDBB",
"v  c #CABFBB",
"b  c #D2BCB2",
"n  c #BAC0AE",
"m  c #BEC0B3",
"M  c #BDC3BA",
"N  c #C5C7AD",
"B  c #CDC1A9",
"V  c #C5C1B3",
"C  c #CBC3B4",
"Z  c #CDC9B6",
"A  c #C4C2BB",
"S  c #CCC4BA",
"D  c #C5CBBE",
"F  c #CDCABC",
"G  c #D0C6B7",
"H  c #D2CAB5",
"J  c #D1C7BB",
"K  c #D2CABC",
"L  c #D9C9BF",
"P  c #D0D0BD",
"I  c #DDD2BE",
"U  c #D4D9B9",
"Y  c #DCDCBB",
"T  c #E4D5BC",
"R  c #B4B5C2",
"E  c #B5B8C6",
"W  c #B3B7C8",
"Q  c #B8B6CB",
"!  c #BABCC9",
"~  c #BDBDC3",
"^  c #C2BEC1",
"/  c #C0BFC8",
"(  c #B6C7C1",
")  c #BCC0CD",
"_  c #BDC9CC",
"`  c #C4C2C2",
"'  c #CAC5C3",
"]  c #CDCBC3",
"[  c #C3C5CB",
"{  c #CBC6CB",
"}  c #C5CCCE",
"|  c #CBCACB",
" . c #D2C7C1",
".. c #D3CCC3",
"X. c #DBCEC4",
"o. c #D4CDCB",
"O. c #DCCECA",
"+. c #CCD6C2",
"@. c #CED1C9",
"#. c #D5D2C4",
"$. c #DBD3C4",
"%. c #D4D8C2",
"&. c #DEDBC4",
"*. c #D5D2CB",
"=. c #DCD3CB",
"-. c #D6DCCD",
";. c #DEDACC",
":. c #CDCCD5",
">. c #CEC9D9",
",. c #D4CCD3",
"<. c #CCD4D4",
"1. c #CFD4D8",
"2. c #D4D2D4",
"3. c #DAD5D3",
"4. c #D6DBD5",
"5. c #DDDBD4",
"6. c #DFD5D8",
"7. c #D4DADB",
"8. c #DCDBDA",
"9. c #D5D2DB",
"0. c #E2D4C3",
"q. c #E2DCC7",
"w. c #E2D6CC",
"e. c #E2DBCC",
"r. c #EAD9CC",
"t. c #E2D5D0",
"y. c #E9D3D0",
"u. c #E2DCD3",
"i. c #EADED5",
"p. c #E2DDDC",
"a. c #DCE2DA",
"s. c #E5E1C3",
"d. c #E4E0CD",
"f. c #EAE4CE",
"g. c #E5E2D2",
"h. c #EAE4D5",
"j. c #EEECD4",
"k. c #E5E3DC",
"l. c #EAE5DB",
"z. c #E6E8DB",
"x. c #EDEADC",
"c. c #F5EDD5",
"v. c #F0E6DB",
"b. c #F2ECDC",
"n. c #F5F2DC",
"m. c #FBF5DE",
"M. c #FFFDDB",
"N. c #F5F3D2",
"B. c #D7DFE1",
"V. c #EADCE0",
"C. c #E6DFE8",
"Z. c #DFE2F0",
"A. c #E4E4E3",
"S. c #EAE5E4",
"D. c #E3E8E2",
"F. c #ECEBE3",
"G. c #EAE6EA",
"H. c #E6ECE8",
"J. c #ECEBEB",
"K. c #F3EDE2",
"L. c #F8EFE3",
"P. c #F1EDE9",
"I. c #FBE5E2",
"U. c #EEF2E6",
"Y. c #EFF4EA",
"T. c #EEF9EB",
"R. c #F5F2E4",
"E. c #FCF5E6",
"W. c #F6F8E4",
"Q. c #FEF9E6",
"!. c #F4F3EB",
"~. c #FCF6E9",
"^. c #F7F8E8",
"/. c #FDFBEC",
"(. c #FFFBED",
"). c #FFF9ED",
"_. c #FFFDEF",
"`. c #FFFFEF",
"'. c #FEFEED",
"]. c #FEFBEA",
"[. c #E5E6F1",
"{. c #ECEBF3",
"}. c #F1ECF2",
"|. c #EDF3F3",
" X c #F6F5F2",
".X c #FAF7F1",
"XX c #F7FEF5",
"oX c #FEFAF1",
"OX c #FFFDF0",
"+X c #FFFFF3",
"@X c ivory",
"#X c #FFFFF5",
"$X c #FFFFF6",
"%X c #FFFFF3",
"&X c #F0F2FF",
"*X c #FEF7F9",
"=X c #F6F9F9",
"-X c #FFFFF9",
";X c #FFFFFB",
":X c white",
">X c #FFFEFE",
",X c #FFFFFD",
/* pixels */
"                                                                                                                                ",
"                                                                                                                                ",
"                                                                                                                                ",
"                                                                                                                                ",
"                                                                                                                                ",
"                                            & E ! r               1.B.B.-                                                       ",
"                                          ..3.o.o.o.8.^       F L.$X`.`.$X:X2.Q                                                 ",
"                                        =.w.X.G K K K ;.o.> C $.Q.`./././.~.-X:X/                                               ",
"                                      k.$.G S K G G K S K $.S $./.@X~.~.~././.`.-X}.                                            ",
"                                    } u.Z K K K G G G G G S V x.$X~.~.~.~.~./././.:X:X                                          ",
"                                    7...K K K K G K G x C S C K.-X~././.~././././.oX:XR                                         ",
"                                  _ ] F K K K G K G F 3.] V C v.@X@X~.S.A.K././././.$XJ.                                        ",
"                                  <.F Z K K K G G C *.$X|.S C h.$X-X5.S./.D.K.`.`.].M.:X                                        ",
"                                  } ] Z K K K S C ..K j.$XF.o.v.oX8.S h.`./.S.^.Y.m.M.$XE                                       ",
"                                  <.] Z x C Z K i.D P /.].`.H.L.3.9 s././././.E.^.z.N.`.Z.                                      ",
"                                  [ ] ] 8.o.l w.$Xu.z L.-XJ.l./.{ a m.$XQ.Q.Q.Q./.T.R.`.[.                                      ",
"                                  * c F.:XXX*.R.-XE.x g.!.6.E.@X!.` F b.`.@X/.~.@X!.R.].G.                                      ",
"                                  4 > F.$X/. X!.a.J.h.-.l.E.@X$XQ.F 3 ;.`.h.E.Q.@X*Xb.-Xd                                       ",
"                                ^ d.u.x./.@X X5.F  X Xb./.$X-X@X#.z ' Z K 0 b.`.;.G.R.:X@                                       ",
"                          W a 5 l j.$XQ.`.XX8.^ *.$X!.E.$X$X@Xh.V Z o.A A V =.;.*.F.Q.R.8.4.D.:Xy                               ",
"                        1 t.q.n.e.m.Q.~.J.] q.8.` l.K./.`.b.w.K l #./.D.x.].2.g E.@XW.] Y.:X=XU.$X:Xe                           ",
"                        ..0.~.@X`././.P.c 8 h.$Xl.~ k.@XQ.K 7 V #.w.].:X@X/./.E./.].Q.0 g.-X|.G.~.$X:X]                         ",
"                        C 0.$XE././.M.Q.*.l e.@X].R.Q.`.h.V l e.$X`.E.]./.Q./.]./.].l.S E.@X$X{.K.Q.!.:X                        ",
"                        c i.@X/.Q.].].-XD.8 d.@X/.`.].].$.V #./.$X@X/.Q././././.].R.` l.Q.b./.K.F.a.a.>XD.                      ",
"                          ..b.$X].K.G.J.o.l e.$X/././.`.$.V L.@X/./.Q.Q.Q.Q.Q.Q./.E.' C l V z.~.8.a.F.F.:X                      ",
"                          @ $.x.`.x.g z S C $.`./././.`.x.l R.@X/./.Q.Q.Q.Q.Q.Q.Q.].x.#.;.x.F.@XE.o.k..X-X:                     ",
"                          A K ~.].$X6.C K S Z R.`.Q./.`./.Z h.@X/./.Q.Q.Q.Q.Q.Q.Q.Q.].`.`.@X].S./.h.S.$X$X(                     ",
"                        < *.K x.~.p.S J K Z C h.`.Q./././.b.b./././.Q.Q.Q.Q.Q.Q.Q.Q.Q.Q././.8.A.!.~././.:X<.                    ",
"                        o.| H j g.3.x K K Z Z #.E././.Q.Q.`./.~./././.~.Q.Q.Q.Q.Q.Q.Q.Q./.~.,.Q.~.S.~.@X:X_                     ",
"                      d O.z D F | | S K K K C 8 #.Q./.~././.Q.Q.`.`.Q.~.Q.Q.Q.Q.Q.Q.Q.Q.`.`.c w.@X!.P.@X:X                      ",
"                    6 ` 5.X.v / ^ S K K K S V C e.E./.Q./.Q.~.`.b.b./.~.Q.Q.Q.Q.Q.Q.Q.].z.D 7 K E. XS.-X=X                      ",
"                  R m.n.$XF.h K K K K ..C x g.].-X`.Q.Q.Q.Q.`.E.B e.@X~./././././.Q.].W.M n x.~./.!.P.:X:.                      ",
"                  >.~.@X/./.3.J K K K K C u.$X@X]././.`.`.@X~.#.F R.!.Q.]./././.Q.Q.`.5.A E.@X`.`.E.:XF.                        ",
"                    b.].].$X:Xo.Z K K C =.@X~.Q.Q.Q.`.L.=.5.5.!.`.E.!.J.E./././.Q.Q.`.5.] -X/.~./.@X:X                          ",
"                  + T m.m.;.J...G K S S L.$XQ./.~.`.l.S 5.u.h.`.`.Q.].^.!.Q./././.Q.].R.F l.$X/./.:X8.                          ",
"                  t 3.' ' i G K K K C #.E.~.!.E./.~.V #./.x.@X/.`.].].].^.Q.].Q.E.Q.Q.`.g.z #.n.@XJ.                            ",
"                  = { ^ `  .S z K K Z F 5.~..XG.E.@Xe.K R.x.@X@X@X`.Q.~.K.`.K.l.!.!.Q./.@XK z E.oX X                            ",
"                  > #.=.L S M a.*.G K g @.@X`.~.F./.*.$.$XE.R.~.w.z A 4.^./.2.R./.|.F.Q.`.3.S Q./.:X-                           ",
"                  = .. . .A +.$X5.k K S V $./.].!.!.F S o.S u.q       ' o.' w f.].].R.K.E.3., Y ].:X2                           ",
"                    =.S K a l.$XF.o.S z S ;././.].^.l.A.            p I S K #.x./.Q.Q.].!.l.4.] *.%.                            ",
"                    p.#.` c x.`.@XJ.` K ~.@X/./.~.Q.~.-X4.          U B i.$X`.`./././.].R.E.@X!.S.4.                            ",
"                    s 3.^ V.$X/.].x.x K ~.-X/./././.`.`.:Xe         A X.w.-X$X/././././.R.U.!.@X`.:Xf                           ",
"                      2.b I.:XR.!.R.#.i C g./.@X/.`.`.`.:Xe           [ N w.x.~./.Q././.]./.{.K.].:X7.                          ",
"                      R =.O.2.g.W.R.^.4.A l E.-Xe.h.-X:X|.              m $.C ~.x.h.@X]./././.K.R.:X7.                          ",
"                        | ] A b.].R.R.$X8.z 0.c.% O p.!                   u z h.E.w.b.]././.].F.F.:X}                           ",
"                        A c.@X/.].~.R.$XK.] K *.                            4 s.-X/.b.`.`.@X`.P.F.:Xf                           ",
"                        S c.$X/.`.^.#.R.:Xk.                                K K R.@X/.h./.R.!.!.E.:X                            ",
"                        o u.h.`./.`.~.P.C.w.                                ^ &.&.d.0.H X.A u.@X-XS.                            ",
"                          ^ I $XQ.#.^.9.                                      [ u g   . v.O   -X:X$                             ",
"                          ^ I f.@X-       &X)                                                 G.}.                              ",
"                            A ..:.      z -X:X                                      7.    :X:X`                                 ",
"                                    d g.v.Q.].:X                                s V `.-X@X$X-X#                                 ",
"                                    > E.-X/.@X                                a r.i.R.`.$X$X5.                                  ",
"                                ; d.l.R./.@X@XF.                              < 0.v.@X/.].:X`                                   ",
"                                } H @X~.w.x.n.-X                                c 0 g.$X@X-Xx.                                  ",
"                              a Z W.@XQ.c.c.~.A.                                  a $.h.g.`.k.                                  ",
"                            { T Q.$XQ.`.Q.Q.:X                                      ..=.X                                       ",
"                            ,.y.t.e.C R.S > d                                       ` '                                         ",
"                              o.2.<                                                                                             ",
"                                                                                                                                ",
"                                                                                                                                ",
"                                                                                                                                ",
"                                                                                                                                ",
"                                                                                                                                ",
"                                                                                                                                ",
"                                                                                                                                ",
"                                                                                                                                ",
"                                                                                                                                ",
"                                                                                                                                ",
"                                                                                                                                ",
"                                                                                                                                ",
"                                                                                                                                ",
"                                                                                                                                ",
"                                                                                                                                ",
"                                                                                                                                "
};
