/* XPM */
static char *cf9a1fd84de64f6cbe3403390f652fa2[] = {
/* columns rows colors chars-per-pixel */
"64 64 188 2 ",
"   c None",
".  c #000002",
"X  c #00050D",
"o  c #000B15",
"O  c #03121F",
"+  c #390000",
"@  c #000F28",
"#  c #1B1E25",
"$  c #0B2029",
"%  c #1D2227",
"&  c #00213F",
"*  c #092534",
"=  c #172731",
"-  c #142C3D",
";  c #222A2B",
":  c #262931",
">  c #410000",
",  c #4E0000",
"<  c #580000",
"1  c #650204",
"2  c #731719",
"3  c #771D20",
"4  c #6A2A29",
"5  c #772A2D",
"6  c #6F3030",
"7  c #743533",
"8  c #152E41",
"9  c #15344C",
"0  c #153953",
"q  c #243E53",
"w  c #38454D",
"e  c #354959",
"r  c #2A4C60",
"t  c #334E63",
"y  c #305163",
"u  c #7F4241",
"i  c #455765",
"p  c #475A69",
"a  c #515E67",
"s  c #59656D",
"d  c #4D6174",
"f  c #606F7E",
"g  c #667279",
"h  c #69747D",
"j  c #853737",
"k  c #874747",
"l  c #91524B",
"z  c #955657",
"x  c #966361",
"c  c #AD6C69",
"v  c #B6797C",
"b  c #6E7E83",
"n  c #737E8F",
"m  c #79858E",
"M  c #568BA8",
"N  c #7E8BA3",
"B  c #8E858E",
"V  c #958D8E",
"C  c #99958F",
"Z  c #848F96",
"A  c #8A9A9C",
"S  c #9A9C9F",
"D  c #A29A9E",
"F  c #A4A99F",
"G  c #A3A69E",
"H  c #9C9EAA",
"J  c #9BAAAA",
"K  c #A8A8A7",
"L  c #A7A5AB",
"P  c #AAA8AA",
"I  c #B5ADA4",
"U  c #A9B0A8",
"Y  c #B4B2AC",
"T  c #BBB4AC",
"R  c #BDBAAD",
"E  c #BCB9A5",
"W  c #ABABB3",
"Q  c #A7A5B5",
"!  c #BAAEB5",
"~  c #B5B3B3",
"^  c #B7B9B1",
"/  c #BDBCB5",
"(  c #B5BCB9",
")  c #BEBCBC",
"_  c #B6B4B5",
"`  c #C4BBAE",
"'  c #C0B7AB",
"]  c #C3B7B4",
"[  c #C3BCB3",
"{  c #CABEB3",
"}  c #C5BDBB",
"|  c #C8BDB8",
" . c #C7C3AA",
".. c #C5C2B5",
"X. c #CBC3B4",
"o. c #CDC8B5",
"O. c #C5C2BC",
"+. c #CBC4BB",
"@. c #CDC9BC",
"#. c #C4CABD",
"$. c #D3C4B5",
"%. c #D1C9B5",
"&. c #D2C5BB",
"*. c #D3CABC",
"=. c #D9CDBE",
"-. c #D6D2BF",
";. c #DCD5BF",
":. c #B3B6C4",
">. c #B7BAC5",
",. c #C3BCC2",
"<. c #BDC0C4",
"1. c #C6C3C2",
"2. c #CBC5C3",
"3. c #CECBC3",
"4. c #CDCDCB",
"5. c #C6C6CE",
"6. c #D2C6C1",
"7. c #D3CAC2",
"8. c #DCCCC3",
"9. c #D4CCCA",
"0. c #CFD3CB",
"q. c #D4D3C4",
"w. c #DCD3C4",
"e. c #D6D3CC",
"r. c #DCD5CB",
"t. c #DDD9CB",
"y. c #D5D9C7",
"u. c #C6C9D2",
"i. c #D0CFD0",
"p. c #D1CCDA",
"a. c #CBDBD8",
"s. c #D5D3D3",
"d. c #DCD4D2",
"f. c #DCDAD3",
"g. c #D4D5DB",
"h. c #D5DBDB",
"j. c #DBDCDA",
"k. c #E2D5C5",
"l. c #E2DAC5",
"z. c #E3D3CA",
"x. c #E3DBCC",
"c. c #EBDDCE",
"v. c #E3DCD2",
"b. c #EBDCD2",
"n. c #E4DDD9",
"m. c #DAE1D5",
"M. c #E5E1CE",
"N. c #E9E2CF",
"B. c #F2E8CE",
"V. c #E6E2D4",
"C. c #EAE4D3",
"Z. c #E4E3DB",
"A. c #EAE5DA",
"S. c #EDEADC",
"D. c #E9E8DA",
"F. c #F0E9D6",
"G. c #F3EDDC",
"H. c #F5EADC",
"J. c #EAF0DD",
"K. c #F5F1DD",
"L. c #F9F6D9",
"P. c #DEDEE1",
"I. c #DDE2E1",
"U. c #E3E5E1",
"Y. c #EBE6E1",
"T. c #E7E9E2",
"R. c #ECECE3",
"E. c #EDEEEA",
"W. c #F3EEE3",
"Q. c #F1EDEA",
"!. c #F8EFE4",
"~. c #ECF2EB",
"^. c #EFF2E5",
"/. c #F4F2E4",
"(. c #FBF5E4",
"). c #FEFBE6",
"_. c #F4F3EA",
"`. c #FBF6EA",
"'. c #F6FAEB",
"]. c #FEFBEB",
"[. c #F5F8E7",
"{. c #F1EEF0",
"}. c #F3F5F3",
"|. c #F6FAF3",
" X c #FFFEF3",
".X c white",
"XX c #FFFFFD",
"oX c #FFFFFC",
/* pixels */
"                                                                                                                                ",
"                                                                                                                                ",
"                                                                                                                                ",
"                                                                                                                                ",
"                                                                                                                                ",
"                                                                                                                                ",
"                                                                                                                                ",
"                                                                                                                                ",
"                                                                                                                                ",
"                                                          , 4     v ,                                                           ",
"                                                          k +     2 1                                                           ",
"                                                            >     <                                                             ",
"                                                            u 7   3                                                             ",
"                                                              6 j c                                                             ",
"                                                              u 5                                                               ",
"                                                              l j                                                               ",
"                                                              x z                                                               ",
"                                                            0 9 q r                                                             ",
"                                              6.O.1.2.} ~ g i m ( j.Z.S.R.P.                                                    ",
"                                            d.w.w.*.%.w.w.k.k.B.oX.X X X]. XoXQ.                                                ",
"                                          j.w.o.&.%.+.X.{ X.` r. X].`.`.].`.]. X.Xu.                y $                         ",
"                                        I.3.o.*.%.X.o.x.x.x.r.x.`. X X].`.].].`.). X            ; * M 8 %                       ",
"                                        g.3.%.%.X.w.W. X X].].W._./.W.R.R._._.].L.]..X    w = X X O - O #                       ",
"                                          s.*.X.=. XoX(.W._._.].J.y.M.C.G.'.{./.)..Xm . . . . =     : o                         ",
"                                          ~ x.X.x.oXG.r.].W.r.v.o.C. X].(.).].}.W.].F g A b                                     ",
"                                          G y...x. X+.r.].l.C.G.S.(.].`.].`.). X_.R.oX.X.X.X.Xj.                                ",
"                                      >.g.f.....M.Q.} =.`.]. X X X].`.].].`.`.).`.).S.!.`.`. X.XI.                              ",
"                                    1.n.9.2.6.o.w./.6.{ x. X X_.Z.W.`.(./. X].`.`.)./.R._./.].]..XJ                             ",
"                                L R.w.&.6.*.&.+.+.r.8.&.R 9.Y.R.R./.'.U.+.C.(. X].`.].).'.R./.].oXa.                            ",
"                                v.8.&.*.*.+.O.O.O.[ X...@.d.w./. X].]. Xj.R *.S.(.`.`.`.`.`.R. X.X                              ",
"                              i.l.$.*.@.+.O.+.7.c.c.O...`.`.W.`.].].).).|.9.` =.(.].`.).`.`.|..X)                               ",
"                            L n.%.*.&.+.| V._.E.'. XW.X.G.A.W.]. X X`. XE.+.%.G.`./.(.].(. X.XV                                 ",
"                            T v.&.7.@.+.O.|..X XR.)._.6./.].W.oXV.q.t.R.U...+.Z.`.~.~.(. Xs.                                    ",
"                            [ r.7.+.+.@...t.`.].^.`.f.R x.w.*.e...r.(.n.2.2.^ q.).].'.S.].:.                                    ",
"                            D A.&.6.@.| { X.S. X`.].S.9.9.r.e.<.o. X'.o.X.+...*.(.`.).)./.oXU.                                  ",
"                              5.H.&.1.+.z.`.`.`.`.)._.|.~.V.v.6.o.x.0. .&.S.(.`.].`.`.`.).'.oX                                  ",
"                                L y.t.$.W..X].`.`.`.`. X XD.o. .o.X.R ..&.]..X].`.`.`.`.).`.~.                                  ",
"                                    C 9.w.F.`.`.]. X].`.].}.Z.t.@.X.2.5./ -.`.`.`.].`.`.`.).oX:.                                ",
"                              h. X  V 9.[ E C..X/.t. X X|.T.'. X].U.Q. XZ.[ ` t.].S.].].].`. X.X                                ",
"                          ,.~ S. XoXn.X.O.O.z.K.-.Y e.T.Q.`.].).]. X`.]. Xs.T 6.`.V.V.].`.`.(.oX5.                              ",
"                        _ G.(.(.]. Xn.{ 6.1.X.[ O./.Z.A.`. X].).).).).).).`.j.' K. XC./.].].]. Xh.                              ",
"                        2.C..X].`. Xe.T | 1.#.) ..G..X X].G.H.].`.`.).`.(.G.e.` F.oX X(.`. X X.X                                ",
"                        B C.C.].]. XW.s.+.M.`.d.X.%.w.t.w.` V. X`.`.`.`.`.(.e.O.o.l.N.=.w.A./ >.                                ",
"                          ,.*.]. XV.'.|._.].].R.,...+.@.[ { r.oX X].].].(. Xs.) q.@.w.I X.(.a                                   ",
"                          >.=.C. X) S W. XQ.'.S.2.] S.`.9.+.X.x.G.G.C.S.].].s.n.`.`.H ( ( p f                                   ",
"                            +.w.`.N q R *.Q..Xn.7.+.c.(.e.1...T t.S.r.6.(./. X/ w e d oXZ e .X.X                                ",
"                              W d & p +.X.). XU.m [ 7.2.X.X.[ +. XoX X`.f.R. Xy.n s @..XZ.E.oX.X                                ",
"                                @ 9 h A. X`. Xe.h { 9.+.%.v.H./.]./.].].R./. X[.v.b.b.(.oX X X4.                                ",
"                              t i q.3.S. X].]._.v.%.[ [ x. X X].q.V.].].G.T.].Z.[ &.|. X`.)..X                                  ",
"                                Q x.A.oXV./.L.].~.V.2.[ M.oXG.*.S.].`.(.].].]._.q.[ %.(. X].oX}                                 ",
"                                ..l.`.].C.F.F.'.E.e.2.+.%.(.K.S.oX).(.).(.A.(.E./.S./ V.K./..XT.                                ",
"                            W ;.B. X].]. XG. XZ...$.*.+.*.G. X].G.`.].`.4.j.`.Q._.R.9.X.r.H _                                   ",
"                            p.z.v.G.q.v.A.+.A.2.[ +.` w. X].].t.x. X XR.[ F.oX X`.t.M.G.W                                       ",
"                              d.9.1.~ [ | f.r.+.e.|.f.t. X X(.` C. XY.f.` C. X`. X<.~ F                                         ",
"                                    } 6.[ 7.t.@.S. X X3.7.].(.X.@.3.[ r.C.'. X]. X                                              ",
"                                    ] d.+.C..X`.`.`.].K.f.W. XH./ ..(. X/./.`. X_.`.h.                                          ",
"                                      Y O.C.(.].].).). X}.R.]. Xj.+.)..X`.V.M.M.(..XoX                                          ",
"                                          9.} f.oX].K.n.Y.`. X].v.[ ;.K.(.G.).K./..Xh.                                          ",
"                                            / l.S.n.1.P / R.A.Z.e.T / / Y | c.Z. X                                              ",
"                                            S q.T X.O...=.`.A.R.oXs.e.A._.n.8.O.                                                ",
"                                              t.Y.r.3.6.8.). X].].|. XR.s.`.H.K                                                 ",
"                                              t.G. Xs.Q t.o.Z.oX).'.oXm.                                                        ",
"                                                  U     U 9.w.G.t.V./.                                                          ",
"                                                            ! Y ^ )                                                             "
};
