/* XPM */
static char *cb47e2ea29a543248f0fb688e4043bfd[] = {
/* columns rows colors chars-per-pixel */
"30 30 237 2 ",
"   c None",
".  c #252A1E",
"X  c #223015",
"o  c #180B35",
"O  c #1F103E",
"+  c #373835",
"@  c #373A37",
"#  c #39393B",
"$  c #3E5333",
"%  c #3F5235",
"&  c #434C35",
"*  c #464C3D",
"=  c #425738",
"-  c #251348",
";  c #261349",
":  c #28144B",
">  c #2C1652",
",  c #2A1556",
"<  c #2D185A",
"1  c #2E1A5B",
"2  c #311A59",
"3  c #331B5B",
"4  c #351D5F",
"5  c #361C5E",
"6  c #341B60",
"7  c #351C61",
"8  c #361D61",
"9  c #351C62",
"0  c #371D63",
"q  c #351B67",
"w  c #351C64",
"e  c #391D65",
"r  c #391D66",
"t  c #3A1F67",
"y  c #371D6D",
"u  c #381E69",
"i  c #3A1F69",
"p  c #3B1F69",
"a  c #3A1F6A",
"s  c #3A1F6B",
"d  c #3C1F68",
"f  c #3B1F6D",
"g  c #3B1F6F",
"h  c #3A1F75",
"j  c #3B2069",
"k  c #3D2068",
"l  c #3C206A",
"z  c #3E216B",
"x  c #3F226B",
"c  c #3F206C",
"v  c #3E216C",
"b  c #3F226E",
"n  c #3D2070",
"m  c #3E2173",
"M  c #3F2272",
"N  c #403D43",
"B  c #433F4C",
"V  c #40226D",
"C  c #40236F",
"Z  c #41236F",
"A  c #4B2F68",
"S  c #4E3C67",
"D  c #4A336F",
"F  c #583865",
"G  c #5D3964",
"H  c #402271",
"J  c #402371",
"K  c #402372",
"L  c #412470",
"P  c #432471",
"I  c #442673",
"U  c #412374",
"Y  c #422275",
"T  c #412276",
"R  c #432475",
"E  c #452474",
"W  c #442575",
"Q  c #462775",
"!  c #472576",
"~  c #472676",
"^  c #472776",
"/  c #472677",
"(  c #45207A",
")  c #422479",
"_  c #43247A",
"`  c #442578",
"'  c #452779",
"]  c #46267A",
"[  c #47277C",
"{  c #482778",
"}  c #492778",
"|  c #492679",
" . c #472879",
".. c #492879",
"X. c #4B2978",
"o. c #49287A",
"O. c #4A287B",
"+. c #4B287D",
"@. c #4A297D",
"#. c #49287E",
"$. c #4B297E",
"%. c #4B297F",
"&. c #4C297C",
"*. c #4C297E",
"=. c #4C297F",
"-. c #4D2C7C",
";. c #5A3F7B",
":. c #434541",
">. c #434046",
",. c #494D46",
"<. c #4F4F4E",
"1. c #545254",
"2. c #5A5B54",
"3. c #585758",
"4. c #5C6E45",
"5. c #5D6057",
"6. c #626856",
"7. c #5D5962",
"8. c #584176",
"9. c #646263",
"0. c #616066",
"q. c #66606F",
"w. c #431881",
"e. c #462480",
"r. c #482780",
"t. c #4C2A80",
"y. c #4E2B80",
"u. c #4E2B81",
"i. c #4D2B82",
"p. c #4E2A82",
"a. c #4F2C82",
"s. c #4D2C84",
"d. c #502B82",
"f. c #502C83",
"g. c #512D83",
"h. c #502C84",
"j. c #512D84",
"k. c #512D85",
"l. c #522C84",
"z. c #522D85",
"x. c #512E84",
"c. c #522E84",
"v. c #522D86",
"b. c #522D87",
"n. c #522E86",
"m. c #532E87",
"M. c #552F86",
"N. c #532E88",
"B. c #552F89",
"V. c #562E8A",
"C. c #553088",
"Z. c #573188",
"A. c #563089",
"S. c #563189",
"D. c #573288",
"F. c #573289",
"G. c #57308A",
"H. c #57308B",
"J. c #59318B",
"K. c #59338C",
"L. c #59338D",
"P. c #5A328D",
"I. c #5B338D",
"U. c #5B328F",
"Y. c #5B338F",
"T. c #5C338E",
"R. c #59348C",
"E. c #5A348D",
"W. c #5C348F",
"Q. c #502B95",
"!. c #5B3590",
"~. c #5C3491",
"^. c #5D3591",
"/. c #5E3590",
"(. c #5D3790",
"). c #5D3691",
"_. c #5C3492",
"`. c #5D3592",
"'. c #5D3493",
"]. c #5E3793",
"[. c #5F3793",
"{. c #5E3595",
"}. c #603693",
"|. c #603793",
" X c #613794",
".X c #613797",
"XX c #613894",
"oX c #603895",
"OX c #633995",
"+X c #633996",
"@X c #633997",
"#X c #633A97",
"$X c #643A97",
"%X c #623898",
"&X c #633998",
"*X c #643B99",
"=X c #64399A",
"-X c #643A9A",
";X c #653B9B",
":X c #673D9B",
">X c #673B9E",
",X c #663D9C",
"<X c #673D9D",
"1X c #673C9F",
"2X c #683D9D",
"3X c #693D9D",
"4X c #683E9D",
"5X c #683C9E",
"6X c #673BA0",
"7X c #6A3EA0",
"8X c #613AAB",
"9X c #612FB8",
"0X c #6939BE",
"qX c #644197",
"wX c #6A40A0",
"eX c #6E42A2",
"rX c #7446A9",
"tX c #7345AC",
"yX c #7A4DB0",
"uX c #724BBE",
"iX c #692AD5",
"pX c #6C2DD6",
"aX c #6E23DD",
"sX c #6F26EA",
"dX c #7022E2",
"fX c #7025E7",
"gX c #772FEB",
"hX c #7B2CF2",
"jX c #7D58C4",
"kX c #8E2DD2",
"lX c #892EFF",
"zX c #A83CEA",
"xX c #AD3BFF",
"cX c #B744FF",
"vX c #996CE2",
"bX c #A06FF0",
"nX c #E650FF",
/* pixels */
"                                                            ",
"                                P.>X1Xy.                    ",
"                                -X}.5X_.y.                  ",
"                                7X-X@X@XB.z.                ",
"                              -X&.F.yXeXz.Z                 ",
"                              P.b O.rX1XP.                  ",
"                              Q B.F.@XF.%X                  ",
"                              I _.5X_.Q F.                  ",
"                      -.8   4 e P.5X_.z.                    ",
"                  F.%X_.b 6 8 P F.F.J._.                    ",
"                tX_.Q z Q P z O.@.&.@XF.                    ",
"              wX.Xz ; ; 4 Z p e z O.-Xz.,                   ",
"              5Xz.> o O : e j 8 b @.z.g.g                   ",
"              {.{ d z 2 2 O.b 8 Z z.y.z.P.Q 1 p             ",
"              Q !._._.Q { W.&.p p @.@.' d.z.g 1             ",
"                1Xy.z.{ g..X_.H q U n n ' U n               ",
"              E.P.w H z.W._.@Xz.y _                         ",
"                @.H p a.}.P.z.y._                           ",
"      E.6XN.    U @.U [ T.@Xs.h '                           ",
"                      r.:X$Xy.e.                            ",
"                        @XM.&.                              ",
"                        { Q z.  +                           ",
"                        R ( D B . 7.bX                      ",
"                         .w.S * N & q.vX                    ",
"                        8.;.>.+ 1.% X qXjX                  ",
"                        <.5.:.3.$ F kXdXuX                  ",
"                        ,.6.0.= G nXxXsX0X                  ",
"                          9.4.# zXcXaXgX                    ",
"                          8X2.A lXfXhX9X                    ",
"                              Q.iXpX                        "
};
